<svg xmlns="http://www.w3.org/2000/svg" width="49.139" height="35.363" viewBox="0 0 49.139 35.363"><defs><style>.a{fill:#fff;}</style></defs><g transform="translate(0 0)"><g transform="translate(0 0)"><path class="a" d="M42.051,93.682l6.9-14.874a2,2,0,0,0-.111-1.893A1.91,1.91,0,0,0,47.22,76H1.919A1.942,1.942,0,0,0,0,77.965V109.4a1.942,1.942,0,0,0,1.919,1.965h45.3a1.91,1.91,0,0,0,1.623-.915,2,2,0,0,0,.111-1.893ZM3.839,107.434v-27.5H44.183l-5.991,12.91a2.007,2.007,0,0,0,0,1.686l5.991,12.91Z" transform="translate(0 -76)"/></g></g></svg>