<svg xmlns="http://www.w3.org/2000/svg" width="52.119" height="52.119" viewBox="0 0 52.119 52.119"><defs><style>.a{fill:#fff;}</style></defs><path class="a" d="M52.119,26.06a26.06,26.06,0,1,0-26.06,26.06h26.06V47.776H40.447A26.056,26.056,0,0,0,52.119,26.06ZM38.824,43.629a6.515,6.515,0,1,1,1.441-9.1A6.515,6.515,0,0,1,38.824,43.629ZM38.5,15.166a6.515,6.515,0,1,1-4.183,8.209A6.515,6.515,0,0,1,38.5,15.166ZM26.06,4.343a6.515,6.515,0,1,1-6.515,6.515A6.515,6.515,0,0,1,26.06,4.343ZM5.406,19.348a6.515,6.515,0,1,1,4.183,8.209,6.516,6.516,0,0,1-4.183-8.209ZM22.4,42.187a6.515,6.515,0,1,1-1.441-9.1,6.515,6.515,0,0,1,1.441,9.1ZM23.888,26.06a2.172,2.172,0,1,1,2.172,2.172A2.172,2.172,0,0,1,23.888,26.06Zm0,0"/></svg>