<svg xmlns="http://www.w3.org/2000/svg" width="17.023" height="17.023" viewBox="0 0 17.023 17.023"><defs><style>.a{opacity:0.8;}.b{fill:#a3a3b1;}</style></defs><g class="a"><path class="b" d="M11.7,0H5.32A5.32,5.32,0,0,0,0,5.32V11.7a5.32,5.32,0,0,0,5.32,5.32H11.7a5.32,5.32,0,0,0,5.32-5.32V5.32A5.32,5.32,0,0,0,11.7,0Zm3.724,11.7A3.728,3.728,0,0,1,11.7,15.427H5.32A3.728,3.728,0,0,1,1.6,11.7V5.32A3.728,3.728,0,0,1,5.32,1.6H11.7A3.728,3.728,0,0,1,15.427,5.32Z"/><g transform="translate(4.256 4.256)"><path class="b" d="M132.256,128a4.256,4.256,0,1,0,4.256,4.256A4.256,4.256,0,0,0,132.256,128Zm0,6.915a2.66,2.66,0,1,1,2.66-2.66A2.663,2.663,0,0,1,132.256,134.915Z" transform="translate(-128 -128)"/></g><g transform="translate(12.519 3.369)"><ellipse class="b" cx="0.567" cy="0.567" rx="0.567" ry="0.567"/></g></g></svg>