<svg xmlns="http://www.w3.org/2000/svg" width="36.962" height="52.199" viewBox="0 0 36.962 52.199"><defs><style>.a{fill:#fff;}</style></defs><g transform="translate(-59.839)"><g transform="translate(59.839)"><g transform="translate(0)"><circle class="a" cx="4.466" cy="4.466" r="4.466" transform="translate(2.012 18.796)"/><path class="a" d="M71.27,221.432H61.363a1.525,1.525,0,0,0-1.519,1.641l.7,9.139a1.524,1.524,0,0,0,.5,1.015l1.6,1.446v9.242a1.524,1.524,0,0,0,1.524,1.524h.667a1.525,1.525,0,0,0,1.477-1.145,1.525,1.525,0,0,0,1.476,1.145h.668a1.524,1.524,0,0,0,1.524-1.524v-9.242l1.6-1.446a1.524,1.524,0,0,0,.5-1.015l.7-9.139a1.524,1.524,0,0,0-1.52-1.641Z" transform="translate(-59.839 -193.241)"/><path class="a" d="M210.39,13.909a6.955,6.955,0,1,0-6.955-6.955A6.954,6.954,0,0,0,210.39,13.909Z" transform="translate(-185.153)"/><path class="a" d="M189.4,141.734l-2.4-14.108.78-10.139a2.374,2.374,0,0,0-2.367-2.556H169.992a2.374,2.374,0,0,0-2.367,2.556l.78,10.141L166,141.826a1.4,1.4,0,0,0,1.388,1.6H172v6.52a2.374,2.374,0,0,0,2.374,2.374h1.038a2.375,2.375,0,0,0,2.3-1.783,2.374,2.374,0,0,0,2.3,1.783h1.039a2.374,2.374,0,0,0,2.374-2.374v-6.52h4.611a1.406,1.406,0,0,0,1.373-1.691Z" transform="translate(-152.47 -100.299)"/></g></g></g></svg>