<svg xmlns="http://www.w3.org/2000/svg" width="49.402" height="49.383" viewBox="0 0 49.402 49.383"><defs><style>.a{fill:#fff;fill-rule:evenodd;}</style></defs><g transform="translate(-10.031 -10.047)"><g transform="translate(10.031 10.047)"><path class="a" d="M33.5,962.409a24.773,24.773,0,0,0-23.465,23.465h2.511a1.236,1.236,0,1,1,0,2.472H10.031A24.735,24.735,0,0,0,33.5,1011.792v-2.511a1.236,1.236,0,1,1,2.472,0v2.511a24.735,24.735,0,0,0,23.465-23.446H56.9a1.236,1.236,0,0,1,0-2.472h2.53a24.773,24.773,0,0,0-23.465-23.465v2.53a1.236,1.236,0,1,1-2.472,0v-2.53Zm15.412,9.251q.058,0,.116,0a1.158,1.158,0,0,1,1,1.738L39.483,991.436a1.158,1.158,0,0,1-.425.425L21.02,1002.406a1.158,1.158,0,0,1-1.584-1.584l10.545-18.057a1.157,1.157,0,0,1,.406-.425l18.057-10.525a1.157,1.157,0,0,1,.464-.154Z" transform="translate(-10.031 -962.409)"/><path class="a" d="M39.639,999.33l5.387,5.387L32.08,1012.28l7.559-12.95Z" transform="translate(-18.454 -976.513)"/></g></g></svg>