<svg xmlns="http://www.w3.org/2000/svg" width="48.482" height="44.173" viewBox="0 0 48.482 44.173"><defs><style>.a{fill:#fff;}</style></defs><g transform="translate(-5 -9)"><path class="a" d="M5,85H40.554V78H5Zm29.628-4.848h2.693v2.693H34.628Zm-8.619,0H28.7v2.693H26.009Zm-8.619,0h2.693v2.693H17.39Zm-8.619,0h2.693v2.693H8.771Z" transform="translate(0 -31.83)"/><path class="a" d="M5,59.316H40.554V41H5ZM19.545,45.31l8.08,4.848-8.08,4.848Z" transform="translate(0 -14.762)"/><path class="a" d="M5,25v7H40.554V25Zm6.464,4.848H8.771V27.155h2.693Zm8.619,0H17.39V27.155h2.693Zm8.619,0H26.009V27.155H28.7Zm8.619,0H34.628V27.155h2.693Z" transform="translate(0 -7.381)"/><g transform="translate(42.17 37.551)"><path class="a" d="M74,69H85.313V62H74Zm8.08-4.848v2.693H79.387V64.155Z" transform="translate(-74 -62)"/></g><g transform="translate(17.929 9)"><path class="a" d="M29,9v7H64.554V9Zm6.464,4.848H32.771V11.155h2.693Zm8.619,0H41.39V11.155h2.693Zm8.619,0H50.009V11.155H52.7Zm8.619,0H58.628V11.155h2.693Z" transform="translate(-29 -9)"/></g><g transform="translate(42.17 17.619)"><rect class="a" width="11.313" height="18.316" transform="translate(0 0)"/></g></g></svg>