<svg xmlns="http://www.w3.org/2000/svg" width="46.63" height="49.314" viewBox="0 0 46.63 49.314"><defs><style>.a{fill:#fff;}</style></defs><g transform="translate(-0.437)"><path class="a" d="M27.331,26.854a2.564,2.564,0,1,1-2.564,2.564A2.565,2.565,0,0,1,27.331,26.854ZM20,25.537a2.5,2.5,0,1,0,2.5,2.5A2.5,2.5,0,0,0,20,25.537Zm7.036-1.9a1.83,1.83,0,1,0-1.83,1.83A1.831,1.831,0,0,0,27.036,23.633ZM41.388,49.314H6.112c-4.963,0-6.674-4.238-5.12-8.851,0,0,6.115-11.4,16.084-27.764V3.225h-.614a1.612,1.612,0,1,1,0-3.225L31.05,0a1.611,1.611,0,1,1,0,3.222h-.617V12.7C40.4,29.066,46.513,40.429,46.513,40.429,48.064,45.042,46.357,49.314,41.388,49.314ZM38.771,33.725c-1.619-2.93-8.863-15.482-11.2-19.315l-.39-.645H20.325l-.39.645C17.392,18.587,9.739,31.959,8.7,33.725Z"/></g></svg>