<svg xmlns="http://www.w3.org/2000/svg" width="34.766" height="48.462" viewBox="0 0 34.766 48.462"><defs><style>.a{fill:#fff;}</style></defs><g transform="translate(-72.348)"><g transform="translate(72.348)"><path class="a" d="M105.534,45.3h-1.58V36.873a14.227,14.227,0,0,0-7.736-12.642,14.218,14.218,0,0,0,7.736-12.642V3.161h1.58a1.58,1.58,0,1,0,0-3.161H73.928a1.58,1.58,0,0,0,0,3.161h1.58v8.428a14.218,14.218,0,0,0,7.736,12.642,14.227,14.227,0,0,0-7.736,12.642V45.3h-1.58a1.58,1.58,0,0,0,0,3.161h31.606a1.58,1.58,0,0,0,0-3.161ZM78.717,12.543c-.077-.9-.048-.516-.048-9.382h22.124c0,8.866.029,8.482-.048,9.382Zm22.076,30.966c-8.718-7.265-8.4-7.134-9.482-7.516V34.24a1.58,1.58,0,1,0-3.161,0v1.752c-1.07.378-.735.227-9.482,7.516V36.873a11.069,11.069,0,0,1,9.482-10.936v1.981a1.58,1.58,0,1,0,3.161,0V25.938a11.069,11.069,0,0,1,9.482,10.936Z" transform="translate(-72.348)"/></g></g></svg>