<svg xmlns="http://www.w3.org/2000/svg" width="48.723" height="48.723" viewBox="0 0 48.723 48.723"><defs><style>.a{fill:#fff;}</style></defs><path class="a" d="M24.361,0A24.361,24.361,0,1,0,48.723,24.361,24.39,24.39,0,0,0,24.361,0Zm9.105,12.211a6.1,6.1,0,0,1,6.09,6.09,1.523,1.523,0,0,1-3.045,0,3.045,3.045,0,0,0-6.09,0,1.523,1.523,0,0,1-3.045,0A6.1,6.1,0,0,1,33.466,12.211Zm-18.271,0a6.1,6.1,0,0,1,6.09,6.09,1.523,1.523,0,0,1-3.045,0,3.045,3.045,0,0,0-6.09,0,1.523,1.523,0,0,1-3.045,0A6.1,6.1,0,0,1,15.2,12.211Zm9.135,30.452A18.311,18.311,0,0,1,6.757,29.374a1.522,1.522,0,1,1,2.929-.825,15.22,15.22,0,0,0,29.288,0,1.523,1.523,0,1,1,2.932.825A18.323,18.323,0,0,1,24.331,42.663Z"/></svg>