<svg xmlns="http://www.w3.org/2000/svg" width="20.992" height="17.057" viewBox="0 0 20.992 17.057"><defs><style>.a{opacity:0.8;}.b{fill:#a3a3b1;}</style></defs><g class="a"><g transform="translate(0 0)"><path class="b" d="M20.992,50.019a8.973,8.973,0,0,1-2.48.68,4.279,4.279,0,0,0,1.893-2.379,8.6,8.6,0,0,1-2.729,1.042A4.3,4.3,0,0,0,10.232,52.3a4.431,4.431,0,0,0,.1.981,12.181,12.181,0,0,1-8.87-4.5,4.3,4.3,0,0,0,1.322,5.752,4.25,4.25,0,0,1-1.944-.53v.047a4.323,4.323,0,0,0,3.448,4.229,4.3,4.3,0,0,1-1.128.142,3.805,3.805,0,0,1-.815-.073,4.344,4.344,0,0,0,4.021,3A8.647,8.647,0,0,1,1.03,63.184,8.06,8.06,0,0,1,0,63.125a12.116,12.116,0,0,0,6.6,1.931A12.164,12.164,0,0,0,18.851,52.81c0-.19-.007-.374-.016-.556A8.585,8.585,0,0,0,20.992,50.019Z" transform="translate(0 -48)"/></g></g></svg>