<svg xmlns="http://www.w3.org/2000/svg" width="59.418" height="37.981" viewBox="0 0 59.418 37.981"><defs><style>.a{fill:#fff;}</style></defs><g transform="translate(0 -110.401)"><g transform="translate(0 110.401)"><path class="a" d="M.416,156.459c-2.72,6.96,8.19,17.727,24.369,24.05s31.5,5.806,34.218-1.154c1.692-4.331-1.893-10.136-8.741-15.427a18.733,18.733,0,0,1-1.292,6.44,4.966,4.966,0,0,1-2.937,2.808,10.63,10.63,0,0,1-3.907.634c-3.957,0-9.648-1.424-15.223-3.808a47.471,47.471,0,0,1-7.155-3.754,17.8,17.8,0,0,1-5.009-4.5,5.288,5.288,0,0,1-.855-5.089,18.8,18.8,0,0,1,3.416-5.61C8.68,150.293,2.109,152.128.416,156.459Zm52.671,19.793a2.182,2.182,0,0,1,2.515,3.421,2.182,2.182,0,0,1-2.515-3.421Zm-28.93-.548a2.136,2.136,0,0,1,2.849-.879,1.9,1.9,0,1,1-2.849.879ZM4.982,160.192a1.94,1.94,0,0,1-2.4-1.241,1.94,1.94,0,0,1,1.764-2.05,1.94,1.94,0,0,1,2.4,1.241A1.939,1.939,0,0,1,4.982,160.192Z" transform="translate(0 -146.951)"/><path class="a" d="M189.492,134.98c2.418,0,4.175-.593,4.722-1.992a16.556,16.556,0,1,0-30.841-12.053C161.279,126.293,180.234,134.98,189.492,134.98Z" transform="translate(-147.367 -110.401)"/></g></g></svg>