<svg xmlns="http://www.w3.org/2000/svg" width="52.77" height="39.577" viewBox="0 0 52.77 39.577"><defs><style>.a{fill:#fff;}</style></defs><g transform="translate(0 -64)"><g transform="translate(0 64)"><path class="a" d="M51.855,77.608a2.2,2.2,0,0,0-1.979-.3l-10.3,3.434V79.391a2.2,2.2,0,0,0-2.2-2.2H33.957a8.7,8.7,0,0,0,1.222-4.4,8.757,8.757,0,0,0-15.391-5.754A8.748,8.748,0,0,0,5.62,77.192H2.2a2.2,2.2,0,0,0-2.2,2.2v21.987a2.2,2.2,0,0,0,2.2,2.2h35.18a2.2,2.2,0,0,0,2.2-2.2v-1.346l10.3,3.432a2.22,2.22,0,0,0,.695.112,2.2,2.2,0,0,0,2.2-2.2V79.391A2.193,2.193,0,0,0,51.855,77.608ZM13.192,68.4a4.4,4.4,0,1,1-4.4,4.4A4.4,4.4,0,0,1,13.192,68.4Zm-4.4,19.789a2.2,2.2,0,0,1,2.2-2.2h8.8a2.2,2.2,0,0,1,0,4.4H10.994A2.2,2.2,0,0,1,8.795,88.186Zm19.789,8.795H19.789a2.2,2.2,0,1,1,0-4.4h8.795a2.2,2.2,0,1,1,0,4.4Zm-2.2-19.789a4.4,4.4,0,1,1,4.4-4.4A4.4,4.4,0,0,1,26.385,77.192ZM48.372,98.329,39.577,95.4V85.374l8.795-2.933Z" transform="translate(0 -64)"/></g></g></svg>