<svg width="155" height="35" xmlns="http://www.w3.org/2000/svg">
 <defs>
  <style type="text/css">
   <![CDATA[
    .fil0 {fill:#fff}
    .fil1 {fill:#FE681E}
   ]]>
  </style>
 </defs>
 <g>
  <title>background</title>
  <rect fill="none" id="canvas_background" height="37" width="157" y="-1" x="-1"/>
 </g>
 <g>
  <title>Layer 1</title>
  <g stroke="null" id="Layer_x0020_1">
   <metadata stroke="null" transform="translate(0,-6) translate(-8,0) translate(0,-3) translate(0,-3) translate(0,3) translate(0,3) translate(0,3) translate(0,3) translate(0,3) translate(0,-3) translate(0,-3) translate(0,-3) translate(0,-3) translate(0,-3) translate(0,-3) translate(0,-3) translate(0,3) translate(0,3) translate(0,3) translate(0,-3) translate(0,-3) translate(0,-3) translate(0,3) translate(0,3) translate(0,3) translate(0,3) translate(0,3) translate(0,6) translate(0,6) translate(0,-3) translate(0,-3) translate(0,-3) translate(0,-3) translate(0,-3) translate(0,-3) translate(0,-3.0000009536743164) translate(0,-6) translate(0,-9) translate(0,-2.999998092651367) translate(0,-3) translate(0,-3) translate(0,-6) translate(0,-3) translate(0,-3) translate(0,-3) translate(0,-3) translate(0,-3) translate(0,-3.0000038146972656) translate(0,-6) translate(0,-3) translate(0,-6) translate(0,-3) translate(0,-3) translate(0,-3) translate(0,-6) translate(0,-3) translate(0,-3) translate(0,-11) translate(0,-6) translate(0,-6) translate(0,-3) translate(0,-3) translate(0,-3) translate(0,-11) translate(0,-3.027313232421875) translate(-3,0) translate(-3,0) translate(-3,0) translate(3,0) translate(3,0) translate(3,0) translate(3,0) translate(3,0) translate(3,0) translate(-5.960464477539063e-8,0) translate(3,0) translate(-3,0) translate(-3,0) translate(-3,0) translate(-3,0) translate(-3,0) translate(-3,0) translate(-6,0) translate(-3,0) translate(-6,0) translate(-3,0) translate(-6,0) translate(-3,0) translate(-6,0) translate(-3,0) translate(3,0) translate(3,0) translate(3,0) translate(3,0) translate(6,0) translate(3,0) translate(9,0) translate(6,0) translate(6,0) translate(3,0) translate(3,0) translate(9,0) translate(9,0) translate(9,0) translate(6,0) translate(23,0) translate(3,0) translate(3,0) translate(-3,0) translate(-3,0) translate(-3,0) translate(-3,0) translate(-9,0) translate(-17,0) translate(-6,0) translate(-9,0) translate(-9,0) translate(-3.000001907348633,0) translate(-665,0) translate(-3,0) translate(-3,0) translate(-3,0) translate(-3,0) translate(-3,0) translate(-6,0) translate(-3,0) translate(-3,0) translate(-3,0) translate(-3,0) translate(-3,0) translate(-3,0) translate(-3,0) translate(-9,0) translate(-14,0) translate(-3,0) translate(3,0) translate(3,0) translate(3,0) translate(3,0) translate(-3,0) translate(-3,0) translate(-3,0) translate(-3,0) translate(-3,0) translate(-3,0) translate(-3,0) translate(3,0) translate(3,0) translate(-3,0) translate(-3,0) translate(-6,0) translate(-6,0) translate(-3,0) translate(-6,0) translate(-3,0) translate(-3,0) translate(-3,0) translate(-3,0) translate(-3,0) translate(-3,0) translate(-3,0) translate(-3,0) translate(-3,0) translate(-3,0) translate(-3,0) translate(-3,0) translate(-3,0) translate(-3,0) translate(-3,0) translate(-6,0) translate(-3,0) translate(-3,0) translate(-11,0) translate(-3,0) translate(-3,0) translate(-6,0) translate(-3,0) translate(-37,0) translate(-34,0) translate(-23,0) translate(-31,0) translate(-23,0) translate(-31,0) translate(-71,0) translate(-34,0) translate(-71,0) translate(-34,0) translate(-37,0) translate(-17,0) translate(-23,0) translate(-60,0) translate(-31,0) translate(-31,0) translate(-20,0) translate(-20,0) translate(-46,0) translate(-9,0) translate(-9,0) translate(-23,0) translate(-34,0) translate(-17,0) translate(-26,0) translate(-43,0) translate(-23,0) translate(-14,0) translate(-31,0) translate(-23,0) translate(-23,0) translate(-6,0) translate(-9,0) translate(-6,0) translate(-14,0) translate(-17,0) translate(-31,0) translate(-6,0) translate(-20,0) translate(-17,0) translate(-29,0) translate(-6,0) translate(-65.9998779296875,0) translate(-17.0001220703125,0) translate(-6,0) translate(-6,0) translate(-6,0) translate(-3,0) translate(-20,0) translate(-23,0) translate(-11,0) translate(-34,0) translate(-34,0) translate(-63,0) translate(-26,0) translate(-63,0) translate(-14,0) translate(-26,0) translate(-26,0) translate(-20,0) translate(-34,0) translate(-11,0) translate(-9,0) translate(-37,0) translate(-6,0) translate(-3,0) translate(-20,0) translate(-23,0) translate(-29,0) translate(-77,0) translate(-43,0) translate(-9,0) translate(-17,0) translate(-6,0) translate(-3,0) translate(3,0) translate(-3,0) translate(-3,0) translate(-3,0) translate(-3,0) translate(-3,0) translate(-3,0) translate(-3,0) translate(-3,0) translate(-0.270751953125,0) translate(0,14) translate(0,57) translate(0,43) translate(0,17) translate(0,20) translate(0,17) translate(0,17) translate(0,17) translate(0,23) translate(0,29) translate(0,171) translate(0,97) translate(0,60) translate(0,14) translate(0,3) translate(0,6) translate(0,17) translate(0,34) translate(0,20) translate(0,14) translate(0,26) translate(0,26) translate(0,29) translate(0,9) translate(0,6) translate(0,14) translate(0,29) translate(0,14) translate(0,6) translate(0,17) translate(0,57) translate(0,51) translate(0,63) translate(0,77) translate(0,17) translate(0,14) translate(0,11) translate(0,6) translate(0,11) translate(0,6) translate(0,6) translate(0,9) translate(0,11) translate(0,6) translate(0,6) translate(0,11) translate(0,9) translate(0,6) translate(0,6) translate(0,6) translate(0,6) translate(0,11) translate(0,20) translate(0,14) translate(0,40) translate(0,29) translate(0,26.0001220703125) translate(0,29) translate(0,31) translate(0,14) translate(0,14) translate(0,6) translate(0,6) translate(0,6) translate(0,3) translate(0,3) translate(0,11) translate(0,6) translate(0,3) translate(0,11) translate(0,6) translate(0,9) translate(0,3) translate(0,17) translate(0,20) translate(0,14) translate(0,11) translate(0,6) translate(0,9) translate(0,26) translate(0,9) translate(0,6) translate(0,9) translate(0,9) translate(0,6) translate(0,26) translate(0,23) translate(0,11) translate(0,17) translate(0,20) translate(0,23) translate(0,11) translate(0,3) translate(0,20) translate(0,60) translate(0,29) translate(0,57) translate(0,83) translate(0,54) translate(0,14) translate(0,-3) translate(0,-9) translate(0,-9) translate(0,-14) translate(0,-3) translate(0,-6) translate(0,-17) translate(0,-20) translate(0,-11) translate(0,-14) translate(0,-17) translate(0,-14) translate(0,-9) translate(0,-11) translate(0,-37) translate(0,-14) translate(0,-23) translate(0,-20) translate(0,-17) translate(0,-20) translate(0,-14) translate(0,-9) translate(0,-6) translate(0,-9) translate(0,-11) translate(0,-6) translate(0,-6) translate(0,-3) translate(0,-3) translate(0,-3) translate(0,-3) translate(0,-3) translate(0,-3) translate(0,-3) translate(0,-3) translate(0,-3) translate(0,-3) translate(0,-3) translate(0,-3) translate(0,-6) translate(0,-6) translate(0,-6) translate(0,-0.29833984375) translate(2584.044921875,-2567.37353515625) translate(2773.270751953125,-2498.37353515625) scale(0.11759641766548157,0.19313989579677582) translate(-2773.270751953125,2498.37353515625) translate(23582.953125,-12935.564453125) scale(9.014477729797363,1) translate(-23582.953125,12935.564453125) translate(2616.11962890625,-12935.564453125) scale(1,6.608608722686768) translate(-2616.11962890625,12935.564453125) translate(2616.11962890625,-1234.214599609375) scale(0.9741550087928772,0.873600423336029) translate(-2616.11962890625,1234.214599609375) translate(821.1701049804688,-564.9963989257812) scale(0.15632501244544983,1) translate(-821.1701049804688,564.9963989257812) translate(5252.966796875,158.1698455810547) scale(1,0.19388063251972198) translate(-5252.966796875,-158.1698455810547) translate(30.972692489624023,92.64419555664062) scale(0.20577716827392578,1) translate(-30.972692489624023,-92.64419555664062) translate(150.51568603515625,815.8104248046875) scale(1,0.2196519672870636) translate(-150.51568603515625,-815.8104248046875) translate(-0.000005382811650633812,-0.0000013938115444034338) scale(1.5146188735961914,1) translate(0.000005382811650633812,0.0000013938115444034338) " id="svg_9"/>
   <path stroke="null" id="svg_10" d="m43.66148,17.09491l-3.37106,0l0.30189,-3.22904l3.32075,0l-0.25157,3.22904zm-26.6666,-2.70669c0,1.18715 -0.80503,1.85195 -2.01257,1.85195c-4.37735,-0.04749 -9.50941,-0.14246 -13.78613,0.04749c-1.50943,0.09497 -1.66037,2.42178 -0.05031,2.42178l7.49684,0l-0.45283,4.74859c-0.05031,1.09217 -0.3522,2.13686 0.40251,2.70669c0.30189,0.23743 0.7044,0.42737 1.25786,0.42737l36.32695,0c0.75471,0 1.30817,-0.37989 1.61006,-0.80726c0.50314,-0.61732 0.3522,-0.90223 0.50314,-1.85195c0.25157,-1.89943 0.3522,-4.7011 0.60377,-6.55305c0,-0.28492 0.05031,-0.75977 0.10063,-1.09217c0.05031,-0.37989 0.10063,-0.80726 0.10063,-1.13966c0,-1.18715 0.25157,-2.37429 0.30189,-3.22904c0,-0.47486 0.05031,-0.71229 0.05031,-1.13966l-43.42127,0c-0.65409,0 -1.15723,0.42737 -1.25786,0.85475c-0.20126,0.61732 0.15094,1.18715 0.60377,1.28212c0.90566,0.28492 9.66035,-0.23743 10.71695,0.18994c0.45283,0.23743 0.90566,0.6648 0.90566,1.28212z" class="fil0"/>
   <path stroke="null" id="svg_11" d="m74.40354,22.1759l-5.23269,0c0,-1.80446 0.60377,-6.64802 0.75471,-8.92734l0.40251,-4.41619c0.15094,-0.85475 0.15094,-2.51675 0.30189,-3.3715c0.05031,-0.28492 0.10063,-0.80726 0.10063,-1.09217c2.36477,0 5.48426,-0.14246 7.59746,0.37989c1.35849,0.3324 2.66666,1.04469 3.37106,2.18435c1.96226,3.18155 0.95597,9.49717 -0.7044,12.1089c-1.35849,2.18435 -3.97483,3.13407 -6.59118,3.13407zm-10.56601,4.41619l9.4591,0c4.37735,0 7.89935,-1.23463 10.06287,-3.32401c2.71697,-2.56424 3.72326,-5.22345 4.27672,-8.83237c0.55346,-3.65641 0.25157,-8.64243 -2.71697,-11.39661c-2.26415,-2.08938 -5.38363,-2.99161 -8.75469,-2.99161l-10.1635,0c0,0.80726 -0.20126,1.75698 -0.20126,2.51675c-0.15094,2.42178 -0.50314,5.0335 -0.7044,7.50277c-0.05031,0.52234 -0.10063,1.13966 -0.15094,1.61452c-0.05031,1.23463 -0.45283,4.08378 -0.45283,5.0335c0,0.71229 -0.25157,2.51675 -0.30189,3.32401c-0.05031,1.56703 -0.40251,4.13127 -0.50314,5.88825c-0.05031,0.3324 -0.25157,0.6648 0.15094,0.6648z" class="fil1"/>
   <path stroke="null" id="svg_12" d="m100.86888,13.53347l-3.97483,0c0,-1.3296 0.30189,-3.08658 0.3522,-4.55864c0.10063,-1.47206 0.40251,-3.0391 0.40251,-4.51116l4.98112,0c2.71697,0 5.38363,0.56983 5.38363,3.46647c0,4.79607 -2.41509,5.60333 -7.14464,5.60333zm-10.26412,13.05861l4.88049,0c0.30189,0 0.30189,-0.52234 0.30189,-0.90223l0.65409,-7.83517l5.78615,0c2.1132,0 4.77986,-0.52234 6.38992,-1.56703c0.75471,-0.42737 1.20754,-0.71229 1.81132,-1.37709c0.15094,-0.14246 0.25157,-0.18994 0.3522,-0.3324c0.60377,-0.56983 1.20754,-1.66201 1.50943,-2.42178c0.90566,-2.08938 1.25786,-5.60333 0.10063,-7.78768c-0.20126,-0.47486 -0.45283,-0.94972 -0.80503,-1.3296c-0.3522,-0.37989 -0.60377,-0.71229 -1.0566,-1.04469c-1.91194,-1.37709 -4.2264,-1.94692 -6.64149,-1.94692l-10.91821,0l-1.35849,14.91056c-0.10063,2.04189 -0.7044,6.74299 -0.7044,8.31003c-0.05031,0.71229 -0.30189,2.51675 -0.30189,3.32401z" class="fil0"/>
   <path stroke="null" id="svg_13" d="m122.50405,22.60327c-1.15723,0 -2.4654,0.04749 -3.37106,-0.6648c-0.7044,-0.61732 -0.90566,-1.04469 -0.90566,-2.18435c0,-2.27932 2.61635,-2.80167 4.67923,-2.80167c0.85534,0 2.21383,0.04749 2.91823,0.18994c0.55346,0.09497 0.30189,0.28492 0.25157,1.13966c-0.10063,1.37709 -0.10063,2.61172 -1.15723,3.51395c-0.45283,0.42737 -1.50943,0.80726 -2.41509,0.80726zm3.92452,-8.49997c-1.00629,-0.23743 -2.91823,-0.28491 -4.02515,-0.28491c-3.27043,0 -6.89306,0.94972 -8.40249,3.79887c-0.10063,0.09497 -0.10063,0.14246 -0.20126,0.23743c-0.05031,0.14246 -0.10063,0.23743 -0.15094,0.37989c-1.15723,2.37429 -0.3522,5.6983 1.81132,7.17037c1.91194,1.28212 3.82389,1.47206 6.54086,1.47206c3.22012,0 5.33332,-0.80726 7.29558,-2.80167c0.65409,-0.6648 1.25786,-1.80446 1.50943,-2.75418c0.3522,-1.37709 0.3522,-3.51395 0.55346,-4.98602c0.50314,-3.75138 0.20126,-7.59774 -4.02515,-9.25974c-1.96226,-0.75977 -4.98112,-0.80726 -7.19495,-0.47486c-1.0566,0.09497 -2.36477,0.37989 -3.37106,0.71229c-0.30189,0.09497 -0.25157,0.04749 -0.3522,0.3324c-0.05031,0.14246 -0.05031,0.3324 -0.05031,0.56983c-0.05031,0.75977 -0.20126,1.61452 -0.20126,2.32681c-0.05031,0.23743 -0.10063,0.52234 -0.10063,0.61732c0,0.37989 0.10063,0.18994 1.30817,-0.14246c2.16352,-0.61732 7.44652,-1.42458 8.65407,0.85475c0.40251,0.75977 0.40251,1.13966 0.40251,2.23184z" class="fil0"/>
   <path stroke="null" id="svg_14" d="m134.57949,30.20101c-1.81132,0 -1.96226,-0.42737 -2.56603,-0.42737c0,0.90223 -0.30189,3.08658 -0.30189,4.0363c0.20126,0.09497 0.95597,0.28492 1.20754,0.3324c2.76729,0.56983 4.9308,-0.09497 6.94338,-1.94692l0.80503,-0.85475c0.40251,-0.56983 0.85534,-1.13966 1.20754,-1.80446c0.60377,-0.9972 1.66037,-2.99161 2.16352,-4.08378l4.47798,-9.30723c0.10063,-0.23743 0.15094,-0.3324 0.25157,-0.52234l1.00629,-2.04189c0.45283,-0.90223 3.1698,-6.41059 3.27043,-6.83797l-5.38363,0c-0.05031,0.23743 -0.55346,1.37709 -0.7044,1.66201l-2.16352,5.12847c-0.55346,1.47206 -1.61006,3.60893 -2.16352,5.12847l-0.7044,1.56703c-0.05031,0.09497 -0.05031,0.04749 -0.10063,0.09497c-0.3522,-1.56703 -1.30817,-5.50836 -1.71069,-6.83796l-1.30817,-5.17596c-0.10063,-0.42737 -0.25157,-1.56703 -0.55346,-1.56703l-5.18238,0c0,0.28492 0.10063,0.52234 0.20126,0.75977l5.43395,17.52229c0.15094,0.42737 0.20126,0.3324 -0.05031,0.75977c-0.45283,0.9972 -0.95597,1.80446 -1.55974,2.61172c-0.45283,0.61732 -1.55974,1.80446 -2.51572,1.80446z" class="fil0"/>
   <path stroke="null" id="svg_15" d="m9.90056,5.46088l39.84895,0c0.30189,0 0.25157,-0.28492 0.30189,-0.80726l0.25157,-3.18155c0,-0.80726 -0.80503,-1.47206 -1.66037,-1.47206l-36.32695,0c-1.15723,0 -1.91194,0.75977 -2.06289,1.85195l-0.3522,3.60893z" class="fil0"/>
   <path stroke="null" id="svg_16" d="m53.42246,26.59209l4.9308,0c0.30189,0 0.20126,-0.3324 0.20126,-0.6648l0.85534,-9.16477c0.10063,-0.90223 0.15094,-2.32681 0.30189,-3.3715c0.05031,-0.47486 0.05031,-1.09217 0.15094,-1.61452c0.05031,-0.56983 0.05031,-1.09217 0.15094,-1.70949l0.30189,-3.32401c0.05031,-0.52234 0.10063,-1.04469 0.10063,-1.66201l0.45283,-5.0335l-4.88049,0c-0.30189,0 -0.20126,0.56983 -0.30189,1.47206l-0.45283,5.0335c-0.20126,1.3296 -0.30189,3.56144 -0.45283,4.98602l-0.30189,3.32401c-0.10063,0.56983 -0.05031,1.13966 -0.15094,1.70949c-0.25157,1.66201 -0.40252,5.12847 -0.60377,6.64802c-0.10063,0.52234 -0.10063,1.09217 -0.15094,1.61452c-0.10063,0.61732 -0.15094,1.13966 -0.15094,1.75698z" class="fil1"/>
   <path stroke="null" id="svg_17" d="m1.34712,5.46088l5.18238,0c0.40252,0 0.7044,-0.18994 0.90566,-0.3324c0.80503,-0.6648 0.40252,-1.89944 -0.45283,-1.89944l-5.68552,0c-1.20754,0.09497 -1.61006,2.23184 0.05031,2.23184z" class="fil0"/>
  </g>
 </g>
</svg>