<?xml version="1.0" encoding="utf-8"?>
<!-- Generator: Adobe Illustrator 24.1.0, SVG Export Plug-In . SVG Version: 6.00 Build 0)  -->
<svg version="1.1" xmlns="http://www.w3.org/2000/svg" xmlns:xlink="http://www.w3.org/1999/xlink" x="0px" y="0px"
	 viewBox="0 0 500 500" style="enable-background:new 0 0 500 500;" xml:space="preserve">
<style type="text/css">
	.st0{clip-path:url(#SVGID_2_);}
	.st1{fill:none;stroke:url(#SVGID_3_);stroke-width:4;stroke-linecap:round;stroke-linejoin:round;stroke-miterlimit:10;}
	.st2{fill:none;stroke:url(#SVGID_4_);stroke-width:4;stroke-linecap:round;stroke-linejoin:round;stroke-miterlimit:10;}
	.st3{fill:none;stroke:url(#SVGID_5_);stroke-width:4;stroke-linecap:round;stroke-linejoin:round;stroke-miterlimit:10;}
	.st4{fill:none;stroke:url(#SVGID_6_);stroke-width:4;stroke-linecap:round;stroke-linejoin:round;stroke-miterlimit:10;}
	.st5{fill:none;stroke:url(#SVGID_7_);stroke-width:4;stroke-linecap:round;stroke-linejoin:round;stroke-miterlimit:10;}
	.st6{fill:none;stroke:url(#SVGID_8_);stroke-width:4;stroke-linecap:round;stroke-linejoin:round;stroke-miterlimit:10;}
	.st7{fill:none;stroke:url(#SVGID_9_);stroke-width:4;stroke-linecap:round;stroke-linejoin:round;stroke-miterlimit:10;}
	.st8{fill:none;stroke:url(#SVGID_10_);stroke-width:4;stroke-linecap:round;stroke-linejoin:round;stroke-miterlimit:10;}
	.st9{fill:none;stroke:url(#SVGID_11_);stroke-width:4;stroke-linecap:round;stroke-linejoin:round;stroke-miterlimit:10;}
	.st10{fill:none;stroke:url(#SVGID_12_);stroke-width:4;stroke-linecap:round;stroke-linejoin:round;stroke-miterlimit:10;}
	.st11{fill:none;stroke:url(#SVGID_13_);stroke-width:4;stroke-linecap:round;stroke-linejoin:round;stroke-miterlimit:10;}
	.st12{fill:none;stroke:url(#SVGID_14_);stroke-width:4;stroke-linecap:round;stroke-linejoin:round;stroke-miterlimit:10;}
	.st13{fill:none;stroke:url(#SVGID_15_);stroke-width:4;stroke-linecap:round;stroke-linejoin:round;stroke-miterlimit:10;}
	.st14{fill:none;stroke:url(#SVGID_16_);stroke-width:4;stroke-linecap:round;stroke-linejoin:round;stroke-miterlimit:10;}
	.st15{fill:none;stroke:url(#SVGID_17_);stroke-width:4;stroke-linecap:round;stroke-linejoin:round;stroke-miterlimit:10;}
	.st16{fill:none;stroke:url(#SVGID_18_);stroke-width:4;stroke-linecap:round;stroke-linejoin:round;stroke-miterlimit:10;}
	.st17{fill:none;stroke:url(#SVGID_19_);stroke-width:4;stroke-linecap:round;stroke-linejoin:round;stroke-miterlimit:10;}
	.st18{fill:none;stroke:url(#SVGID_20_);stroke-width:4;stroke-linecap:round;stroke-linejoin:round;stroke-miterlimit:10;}
	.st19{fill:none;stroke:url(#SVGID_21_);stroke-width:4;stroke-linecap:round;stroke-linejoin:round;stroke-miterlimit:10;}
	.st20{fill:none;stroke:url(#SVGID_22_);stroke-width:4;stroke-linecap:round;stroke-linejoin:round;stroke-miterlimit:10;}
	.st21{fill:none;stroke:url(#SVGID_23_);stroke-width:4;stroke-linecap:round;stroke-linejoin:round;stroke-miterlimit:10;}
	.st22{fill:none;stroke:url(#SVGID_24_);stroke-width:4;stroke-linecap:round;stroke-linejoin:round;stroke-miterlimit:10;}
	.st23{fill:none;stroke:url(#SVGID_25_);stroke-width:4;stroke-linecap:round;stroke-linejoin:round;stroke-miterlimit:10;}
	.st24{fill:none;stroke:url(#SVGID_26_);stroke-width:4;stroke-linecap:round;stroke-linejoin:round;stroke-miterlimit:10;}
	.st25{fill:none;stroke:url(#SVGID_27_);stroke-width:4;stroke-linecap:round;stroke-linejoin:round;stroke-miterlimit:10;}
	.st26{fill:none;stroke:url(#SVGID_28_);stroke-width:4;stroke-linecap:round;stroke-linejoin:round;stroke-miterlimit:10;}
	.st27{fill:none;stroke:url(#SVGID_29_);stroke-width:4;stroke-linecap:round;stroke-linejoin:round;stroke-miterlimit:10;}
	.st28{fill:none;stroke:url(#SVGID_30_);stroke-width:4;stroke-linecap:round;stroke-linejoin:round;stroke-miterlimit:10;}
	.st29{fill:none;stroke:url(#SVGID_31_);stroke-width:4;stroke-linecap:round;stroke-linejoin:round;stroke-miterlimit:10;}
	.st30{fill:none;stroke:url(#SVGID_32_);stroke-width:4;stroke-linecap:round;stroke-linejoin:round;stroke-miterlimit:10;}
	.st31{fill:none;stroke:url(#SVGID_33_);stroke-width:4;stroke-linecap:round;stroke-linejoin:round;stroke-miterlimit:10;}
	.st32{fill:none;stroke:url(#SVGID_34_);stroke-width:4;stroke-linecap:round;stroke-linejoin:round;stroke-miterlimit:10;}
	.st33{fill:none;stroke:url(#SVGID_35_);stroke-width:4;stroke-linecap:round;stroke-linejoin:round;stroke-miterlimit:10;}
	.st34{fill:none;stroke:url(#SVGID_36_);stroke-width:4;stroke-linecap:round;stroke-linejoin:round;stroke-miterlimit:10;}
	.st35{fill:none;stroke:url(#SVGID_37_);stroke-width:4;stroke-linecap:round;stroke-linejoin:round;stroke-miterlimit:10;}
	.st36{fill:none;stroke:url(#SVGID_38_);stroke-width:4;stroke-linecap:round;stroke-linejoin:round;stroke-miterlimit:10;}
	.st37{fill:none;stroke:url(#SVGID_39_);stroke-width:4;stroke-linecap:round;stroke-linejoin:round;stroke-miterlimit:10;}
	.st38{fill:none;stroke:url(#SVGID_40_);stroke-width:4;stroke-linecap:round;stroke-linejoin:round;stroke-miterlimit:10;}
	.st39{fill:none;stroke:url(#SVGID_41_);stroke-width:4;stroke-linecap:round;stroke-linejoin:round;stroke-miterlimit:10;}
	.st40{fill:none;stroke:url(#SVGID_42_);stroke-width:4;stroke-linecap:round;stroke-linejoin:round;stroke-miterlimit:10;}
	.st41{fill:none;stroke:url(#SVGID_43_);stroke-width:4;stroke-linecap:round;stroke-linejoin:round;stroke-miterlimit:10;}
	.st42{fill:none;stroke:url(#SVGID_44_);stroke-width:4;stroke-linecap:round;stroke-linejoin:round;stroke-miterlimit:10;}
	.st43{fill:none;stroke:url(#SVGID_45_);stroke-width:4;stroke-linecap:round;stroke-linejoin:round;stroke-miterlimit:10;}
	.st44{fill:none;stroke:url(#SVGID_46_);stroke-width:4;stroke-linecap:round;stroke-linejoin:round;stroke-miterlimit:10;}
	.st45{fill:none;stroke:url(#SVGID_47_);stroke-width:4;stroke-linecap:round;stroke-linejoin:round;stroke-miterlimit:10;}
	.st46{fill:none;stroke:url(#SVGID_48_);stroke-width:4;stroke-linecap:round;stroke-linejoin:round;stroke-miterlimit:10;}
	.st47{fill:none;stroke:url(#SVGID_49_);stroke-width:4;stroke-linecap:round;stroke-linejoin:round;stroke-miterlimit:10;}
	.st48{fill:none;stroke:url(#SVGID_50_);stroke-width:4;stroke-linecap:round;stroke-linejoin:round;stroke-miterlimit:10;}
	.st49{fill:none;stroke:url(#SVGID_51_);stroke-width:4;stroke-linecap:round;stroke-linejoin:round;stroke-miterlimit:10;}
	.st50{fill:none;stroke:url(#SVGID_52_);stroke-width:4;stroke-linecap:round;stroke-linejoin:round;stroke-miterlimit:10;}
	.st51{fill:none;stroke:url(#SVGID_53_);stroke-width:4;stroke-linecap:round;stroke-linejoin:round;stroke-miterlimit:10;}
	.st52{fill:none;stroke:url(#SVGID_54_);stroke-width:4;stroke-linecap:round;stroke-linejoin:round;stroke-miterlimit:10;}
	.st53{opacity:0.8;fill:#FFFFFF;}
</style>
<g id="BACKGROUND_2">
	<g>
		<defs>
			<rect id="SVGID_1_" x="531" width="750" height="500"/>
		</defs>
		<clipPath id="SVGID_2_">
			<use xlink:href="#SVGID_1_"  style="overflow:visible;"/>
		</clipPath>
		<g class="st0">
			<linearGradient id="SVGID_3_" gradientUnits="userSpaceOnUse" x1="643.3344" y1="300.305" x2="643.3344" y2="-4.945">
				<stop  offset="0" style="stop-color:#9101F6"/>
				<stop  offset="1" style="stop-color:#9101F6;stop-opacity:0"/>
			</linearGradient>
			<polyline class="st1" points="522.56,266.1 619.03,169.72 635.28,185.59 570.87,250 619.36,298.3 635.61,282.3 603.08,250 
				764.11,88.96 672.03,-2.94 			"/>
			<linearGradient id="SVGID_4_" gradientUnits="userSpaceOnUse" x1="520.5563" y1="51.055" x2="637.6933" y2="51.055">
				<stop  offset="0" style="stop-color:#9101F6"/>
				<stop  offset="1" style="stop-color:#9101F6;stop-opacity:0"/>
			</linearGradient>
			<polyline class="st2" points="522.56,40.65 587.03,105.06 635.69,57.06 619.18,40.65 586.97,72.85 554.76,40.65 599.03,-2.94 			
				"/>
			<linearGradient id="SVGID_5_" gradientUnits="userSpaceOnUse" x1="671.5475" y1="139.3883" x2="671.5475" y2="-4.945">
				<stop  offset="0" style="stop-color:#FF0279"/>
				<stop  offset="1" style="stop-color:#FF0279;stop-opacity:0"/>
			</linearGradient>
			<polyline class="st3" points="610.73,0 699.7,88.96 667.49,121.17 683.69,137.39 732.36,89.39 640.36,-2.94 			"/>
			<linearGradient id="SVGID_6_" gradientUnits="userSpaceOnUse" x1="1062.5018" y1="123.2592" x2="1062.5018" y2="-21.0742">
				<stop  offset="0" style="stop-color:#FF0279"/>
				<stop  offset="1" style="stop-color:#FF0279;stop-opacity:0"/>
			</linearGradient>
			<polyline class="st4" points="1001.69,-16.13 1090.65,72.83 1058.44,105.04 1074.65,121.26 1123.31,73.26 1031.31,-19.07 			"/>
			<linearGradient id="SVGID_7_" gradientUnits="userSpaceOnUse" x1="827.1761" y1="-22.1038" x2="767.3782" y2="81.4692">
				<stop  offset="0" style="stop-color:#FF0279"/>
				<stop  offset="1" style="stop-color:#FF0279;stop-opacity:0"/>
			</linearGradient>
			<polyline class="st5" points="737.03,-2.94 812.36,72.72 796.69,89.06 812.36,105.13 860.73,56.76 828.53,24.55 856.36,-2.94 			
				"/>
			<linearGradient id="SVGID_8_" gradientUnits="userSpaceOnUse" x1="520.62" y1="153.4413" x2="589.1933" y2="153.4413">
				<stop  offset="0" style="stop-color:#FF0279"/>
				<stop  offset="1" style="stop-color:#FF0279;stop-opacity:0"/>
			</linearGradient>
			<polyline class="st6" points="522.62,105.13 587.19,169.72 570.87,185.59 554.91,169.34 522.62,201.75 			"/>
			<linearGradient id="SVGID_9_" gradientUnits="userSpaceOnUse" x1="595.0551" y1="171.7217" x2="595.0551" y2="70.8587">
				<stop  offset="0" style="stop-color:#03D6F9"/>
				<stop  offset="1" style="stop-color:#03D6F9;stop-opacity:0"/>
			</linearGradient>
			<polyline class="st7" points="522.56,72.86 587.19,137.39 651.39,72.86 667.49,88.96 619.29,137.39 651.53,169.72 667.55,153.44 
				651.5,137.39 			"/>
			<linearGradient id="SVGID_10_" gradientUnits="userSpaceOnUse" x1="793.2323" y1="492.196" x2="861.8056" y2="492.196">
				<stop  offset="0" style="stop-color:#FF0279"/>
				<stop  offset="1" style="stop-color:#FF0279;stop-opacity:0"/>
			</linearGradient>
			<polyline class="st8" points="795.23,443.88 859.81,508.48 843.48,524.34 827.52,508.09 795.23,540.51 			"/>
			<linearGradient id="SVGID_11_" gradientUnits="userSpaceOnUse" x1="867.6672" y1="510.4763" x2="867.6672" y2="409.6134">
				<stop  offset="0" style="stop-color:#03D6F9"/>
				<stop  offset="1" style="stop-color:#03D6F9;stop-opacity:0"/>
			</linearGradient>
			<polyline class="st9" points="795.17,411.61 859.81,476.14 924,411.61 940.1,427.72 891.91,476.14 924.14,508.48 940.17,492.2 
				924.11,476.14 			"/>
			<linearGradient id="SVGID_12_" gradientUnits="userSpaceOnUse" x1="702.0267" y1="35.055" x2="782.36" y2="35.055">
				<stop  offset="0" style="stop-color:#03D6F9"/>
				<stop  offset="1" style="stop-color:#03D6F9;stop-opacity:0"/>
			</linearGradient>
			<line class="st10" x1="704.03" y1="-2.94" x2="780.36" y2="73.06"/>
			<linearGradient id="SVGID_13_" gradientUnits="userSpaceOnUse" x1="979.5885" y1="35.055" x2="1059.9219" y2="35.055">
				<stop  offset="0" style="stop-color:#03D6F9"/>
				<stop  offset="1" style="stop-color:#03D6F9;stop-opacity:0"/>
			</linearGradient>
			<line class="st11" x1="981.59" y1="-2.94" x2="1057.92" y2="73.06"/>
			<linearGradient id="SVGID_14_" gradientUnits="userSpaceOnUse" x1="627.49" y1="183.585" x2="627.49" y2="333.3883">
				<stop  offset="0" style="stop-color:#03D6F9"/>
				<stop  offset="1" style="stop-color:#03D6F9;stop-opacity:0"/>
			</linearGradient>
			<polyline class="st12" points="522.62,298.38 554.91,266.25 619.69,331.39 732.36,217.34 699.7,185.59 635.28,250 			"/>
			<linearGradient id="SVGID_15_" gradientUnits="userSpaceOnUse" x1="529.1939" y1="321.0526" x2="564.4519" y2="356.3106">
				<stop  offset="0" style="stop-color:#FF0279"/>
				<stop  offset="1" style="stop-color:#FF0279;stop-opacity:0"/>
			</linearGradient>
			<polyline class="st13" points="522.56,330.52 554.91,298.45 587.19,330.74 570.87,346.62 554.69,330.39 522.56,362.73 			"/>
			<linearGradient id="SVGID_16_" gradientUnits="userSpaceOnUse" x1="1026.1448" y1="471.6535" x2="1061.4028" y2="506.9115">
				<stop  offset="0" style="stop-color:#FF0279"/>
				<stop  offset="1" style="stop-color:#FF0279;stop-opacity:0"/>
			</linearGradient>
			<polyline class="st14" points="1019.51,481.12 1051.86,449.05 1084.14,481.34 1067.82,497.22 1051.64,480.99 1019.51,513.33 			
				"/>
			<linearGradient id="SVGID_17_" gradientUnits="userSpaceOnUse" x1="738.4316" y1="474.8535" x2="773.6896" y2="510.1115">
				<stop  offset="0" style="stop-color:#FF0279"/>
				<stop  offset="1" style="stop-color:#FF0279;stop-opacity:0"/>
			</linearGradient>
			<polyline class="st15" points="731.79,484.32 764.14,452.26 796.43,484.54 780.11,500.42 763.93,484.19 731.79,516.53 			"/>
			<linearGradient id="SVGID_18_" gradientUnits="userSpaceOnUse" x1="649.36" y1="242.2571" x2="701.6975" y2="242.2571">
				<stop  offset="0" style="stop-color:#FF0279"/>
				<stop  offset="1" style="stop-color:#FF0279;stop-opacity:0"/>
			</linearGradient>
			<line class="st16" x1="651.36" y1="266.72" x2="699.7" y2="217.79"/>
			<linearGradient id="SVGID_19_" gradientUnits="userSpaceOnUse" x1="520.62" y1="217.8562" x2="556.7" y2="217.8562">
				<stop  offset="0" style="stop-color:#FF0279"/>
				<stop  offset="1" style="stop-color:#FF0279;stop-opacity:0"/>
			</linearGradient>
			<line class="st17" x1="554.7" y1="201.75" x2="522.62" y2="233.96"/>
			<linearGradient id="SVGID_20_" gradientUnits="userSpaceOnUse" x1="766.6933" y1="26.905" x2="830.5275" y2="26.905">
				<stop  offset="0" style="stop-color:#9101F6"/>
				<stop  offset="1" style="stop-color:#9101F6;stop-opacity:0"/>
			</linearGradient>
			<line class="st18" x1="768.69" y1="-2.94" x2="828.53" y2="56.76"/>
			<linearGradient id="SVGID_21_" gradientUnits="userSpaceOnUse" x1="570.8994" y1="461.4125" x2="570.8994" y2="344.6225">
				<stop  offset="0" style="stop-color:#9101F6"/>
				<stop  offset="1" style="stop-color:#9101F6;stop-opacity:0"/>
			</linearGradient>
			<polyline class="st19" points="522.62,395 554.87,362.84 570.95,378.92 603.08,346.62 619.18,362.73 522.62,459.41 			"/>
			<linearGradient id="SVGID_22_" gradientUnits="userSpaceOnUse" x1="520.62" y1="419.1212" x2="685.7802" y2="419.1212">
				<stop  offset="0" style="stop-color:#FF0279"/>
				<stop  offset="1" style="stop-color:#FF0279;stop-opacity:0"/>
			</linearGradient>
			<polyline class="st20" points="635.28,346.62 683.78,395.12 667.49,411.04 635.28,378.83 522.62,491.62 			"/>
			<linearGradient id="SVGID_23_" gradientUnits="userSpaceOnUse" x1="601.2001" y1="457.5463" x2="701.5339" y2="457.5463">
				<stop  offset="0" style="stop-color:#03D6F9"/>
				<stop  offset="1" style="stop-color:#03D6F9;stop-opacity:0"/>
			</linearGradient>
			<polyline class="st21" points="603.2,443.37 635.28,411.04 699.53,475.29 671.69,504.05 			"/>
			<linearGradient id="SVGID_24_" gradientUnits="userSpaceOnUse" x1="540.6933" y1="473.65" x2="669.6536" y2="473.65">
				<stop  offset="0" style="stop-color:#9101F6"/>
				<stop  offset="1" style="stop-color:#9101F6;stop-opacity:0"/>
			</linearGradient>
			<polyline class="st22" points="667.65,475.29 635.28,443.24 603.2,476.06 587.19,459.72 542.69,504.05 			"/>
			
				<linearGradient id="SVGID_25_" gradientUnits="userSpaceOnUse" x1="1116.4052" y1="300.305" x2="1116.4052" y2="-4.945" gradientTransform="matrix(-1 0 0 -1 2284.0088 501.11)">
				<stop  offset="0" style="stop-color:#9101F6"/>
				<stop  offset="1" style="stop-color:#9101F6;stop-opacity:0"/>
			</linearGradient>
			<polyline class="st23" points="1288.38,235.01 1191.91,331.39 1175.66,315.52 1240.07,251.11 1191.58,202.8 1175.33,218.8 
				1207.86,251.11 1046.83,412.15 1138.91,504.05 			"/>
			
				<linearGradient id="SVGID_26_" gradientUnits="userSpaceOnUse" x1="993.627" y1="51.055" x2="1110.7642" y2="51.055" gradientTransform="matrix(-1 0 0 -1 2284.0088 501.11)">
				<stop  offset="0" style="stop-color:#9101F6"/>
				<stop  offset="1" style="stop-color:#9101F6;stop-opacity:0"/>
			</linearGradient>
			<polyline class="st24" points="1288.38,460.46 1223.91,396.05 1175.24,444.05 1191.76,460.46 1223.97,428.26 1256.17,460.46 
				1211.91,504.05 			"/>
			
				<linearGradient id="SVGID_27_" gradientUnits="userSpaceOnUse" x1="1144.6182" y1="139.3883" x2="1144.6182" y2="-4.945" gradientTransform="matrix(-1 0 0 -1 2284.0088 501.11)">
				<stop  offset="0" style="stop-color:#FF0279"/>
				<stop  offset="1" style="stop-color:#FF0279;stop-opacity:0"/>
			</linearGradient>
			<polyline class="st25" points="1200.2,501.11 1111.24,412.15 1143.45,379.94 1127.24,363.72 1078.58,411.72 1170.58,504.05 			
				"/>
			
				<linearGradient id="SVGID_28_" gradientUnits="userSpaceOnUse" x1="993.6907" y1="153.4413" x2="1062.2642" y2="153.4413" gradientTransform="matrix(-1 0 0 -1 2284.0088 501.11)">
				<stop  offset="0" style="stop-color:#FF0279"/>
				<stop  offset="1" style="stop-color:#FF0279;stop-opacity:0"/>
			</linearGradient>
			<polyline class="st26" points="1288.32,395.98 1223.74,331.39 1240.07,315.52 1256.03,331.77 1288.32,299.36 			"/>
			
				<linearGradient id="SVGID_29_" gradientUnits="userSpaceOnUse" x1="1068.1257" y1="171.7217" x2="1068.1257" y2="70.8587" gradientTransform="matrix(-1 0 0 -1 2284.0088 501.11)">
				<stop  offset="0" style="stop-color:#03D6F9"/>
				<stop  offset="1" style="stop-color:#03D6F9;stop-opacity:0"/>
			</linearGradient>
			<polyline class="st27" points="1288.38,428.25 1223.74,363.72 1159.55,428.25 1143.45,412.15 1191.64,363.72 1159.41,331.39 
				1143.38,347.67 1159.44,363.72 			"/>
			
				<linearGradient id="SVGID_30_" gradientUnits="userSpaceOnUse" x1="1100.5607" y1="183.585" x2="1100.5607" y2="333.3883" gradientTransform="matrix(-1 0 0 -1 2284.0088 501.11)">
				<stop  offset="0" style="stop-color:#03D6F9"/>
				<stop  offset="1" style="stop-color:#03D6F9;stop-opacity:0"/>
			</linearGradient>
			<polyline class="st28" points="1288.32,202.74 1256.03,234.86 1191.24,169.72 1078.58,283.77 1111.24,315.52 1175.66,251.11 			
				"/>
			
				<linearGradient id="SVGID_31_" gradientUnits="userSpaceOnUse" x1="1002.2646" y1="321.0526" x2="1037.5227" y2="356.3106" gradientTransform="matrix(-1 0 0 -1 2284.0088 501.11)">
				<stop  offset="0" style="stop-color:#FF0279"/>
				<stop  offset="1" style="stop-color:#FF0279;stop-opacity:0"/>
			</linearGradient>
			<polyline class="st29" points="1288.38,170.59 1256.03,202.66 1223.74,170.37 1240.07,154.49 1256.24,170.72 1288.38,138.38 			
				"/>
			
				<linearGradient id="SVGID_32_" gradientUnits="userSpaceOnUse" x1="993.6907" y1="217.8562" x2="1029.7708" y2="217.8562" gradientTransform="matrix(-1 0 0 -1 2284.0088 501.11)">
				<stop  offset="0" style="stop-color:#FF0279"/>
				<stop  offset="1" style="stop-color:#FF0279;stop-opacity:0"/>
			</linearGradient>
			<line class="st30" x1="1256.24" y1="299.36" x2="1288.32" y2="267.15"/>
			
				<linearGradient id="SVGID_33_" gradientUnits="userSpaceOnUse" x1="1043.9701" y1="461.4125" x2="1043.9701" y2="344.6225" gradientTransform="matrix(-1 0 0 -1 2284.0088 501.11)">
				<stop  offset="0" style="stop-color:#9101F6"/>
				<stop  offset="1" style="stop-color:#9101F6;stop-opacity:0"/>
			</linearGradient>
			<polyline class="st31" points="1288.32,106.11 1256.06,138.27 1239.98,122.19 1207.86,154.49 1191.76,138.38 1288.32,41.7 			"/>
			
				<linearGradient id="SVGID_34_" gradientUnits="userSpaceOnUse" x1="993.6907" y1="419.1212" x2="1158.851" y2="419.1212" gradientTransform="matrix(-1 0 0 -1 2284.0088 501.11)">
				<stop  offset="0" style="stop-color:#FF0279"/>
				<stop  offset="1" style="stop-color:#FF0279;stop-opacity:0"/>
			</linearGradient>
			<polyline class="st32" points="1175.66,154.49 1127.16,105.99 1143.45,90.07 1175.66,122.28 1288.32,9.49 			"/>
			
				<linearGradient id="SVGID_35_" gradientUnits="userSpaceOnUse" x1="1074.2708" y1="457.5463" x2="1174.6046" y2="457.5463" gradientTransform="matrix(-1 0 0 -1 2284.0088 501.11)">
				<stop  offset="0" style="stop-color:#03D6F9"/>
				<stop  offset="1" style="stop-color:#03D6F9;stop-opacity:0"/>
			</linearGradient>
			<polyline class="st33" points="1207.74,57.74 1175.66,90.07 1111.4,25.82 1139.24,-2.94 			"/>
			
				<linearGradient id="SVGID_36_" gradientUnits="userSpaceOnUse" x1="1013.7641" y1="473.65" x2="1142.7242" y2="473.65" gradientTransform="matrix(-1 0 0 -1 2284.0088 501.11)">
				<stop  offset="0" style="stop-color:#9101F6"/>
				<stop  offset="1" style="stop-color:#9101F6;stop-opacity:0"/>
			</linearGradient>
			<polyline class="st34" points="1143.28,25.82 1175.66,57.87 1207.74,25.05 1223.74,41.39 1268.24,-2.94 			"/>
			<linearGradient id="SVGID_37_" gradientUnits="userSpaceOnUse" x1="681.8408" y1="435.5482" x2="766.35" y2="435.5482">
				<stop  offset="0" style="stop-color:#9101F6"/>
				<stop  offset="1" style="stop-color:#9101F6;stop-opacity:0"/>
			</linearGradient>
			<polyline class="st35" points="683.84,427.39 716.51,460.06 764.35,411.04 			"/>
		</g>
	</g>
</g>
<g id="BACKGROUND_1">
	<linearGradient id="SVGID_38_" gradientUnits="userSpaceOnUse" x1="112.3344" y1="300.305" x2="112.3344" y2="-4.945">
		<stop  offset="0" style="stop-color:#9101F6"/>
		<stop  offset="1" style="stop-color:#9101F6;stop-opacity:0"/>
	</linearGradient>
	<polyline class="st36" points="-8.44,266.1 88.03,169.72 104.28,185.59 39.87,250 88.36,298.3 104.61,282.3 72.07,250 
		233.11,88.96 141.03,-2.94 	"/>
	<linearGradient id="SVGID_39_" gradientUnits="userSpaceOnUse" x1="-10.4437" y1="51.055" x2="106.6933" y2="51.055">
		<stop  offset="0" style="stop-color:#9101F6"/>
		<stop  offset="1" style="stop-color:#9101F6;stop-opacity:0"/>
	</linearGradient>
	<polyline class="st37" points="-8.44,40.65 56.03,105.06 104.69,57.06 88.18,40.65 55.97,72.85 23.76,40.65 68.03,-2.94 	"/>
	<linearGradient id="SVGID_40_" gradientUnits="userSpaceOnUse" x1="140.5475" y1="139.3883" x2="140.5475" y2="-4.945">
		<stop  offset="0" style="stop-color:#FF0279"/>
		<stop  offset="1" style="stop-color:#FF0279;stop-opacity:0"/>
	</linearGradient>
	<polyline class="st38" points="79.74,0 168.7,88.96 136.49,121.17 152.69,137.39 201.36,89.39 109.36,-2.94 	"/>
	<linearGradient id="SVGID_41_" gradientUnits="userSpaceOnUse" x1="296.1761" y1="-22.1038" x2="236.3782" y2="81.4692">
		<stop  offset="0" style="stop-color:#FF0279"/>
		<stop  offset="1" style="stop-color:#FF0279;stop-opacity:0"/>
	</linearGradient>
	<polyline class="st39" points="206.03,-2.94 281.36,72.72 265.69,89.06 281.36,105.13 329.73,56.76 297.53,24.55 325.36,-2.94 	"/>
	<linearGradient id="SVGID_42_" gradientUnits="userSpaceOnUse" x1="-10.38" y1="153.4413" x2="58.1933" y2="153.4413">
		<stop  offset="0" style="stop-color:#FF0279"/>
		<stop  offset="1" style="stop-color:#FF0279;stop-opacity:0"/>
	</linearGradient>
	<polyline class="st40" points="-8.38,105.13 56.19,169.72 39.87,185.59 23.91,169.34 -8.38,201.75 	"/>
	<linearGradient id="SVGID_43_" gradientUnits="userSpaceOnUse" x1="64.055" y1="171.7217" x2="64.055" y2="70.8587">
		<stop  offset="0" style="stop-color:#03D6F9"/>
		<stop  offset="1" style="stop-color:#03D6F9;stop-opacity:0"/>
	</linearGradient>
	<polyline class="st41" points="-8.44,72.86 56.19,137.39 120.39,72.86 136.49,88.96 88.29,137.39 120.53,169.72 136.55,153.44 
		120.5,137.39 	"/>
	<linearGradient id="SVGID_44_" gradientUnits="userSpaceOnUse" x1="171.0267" y1="35.055" x2="251.36" y2="35.055">
		<stop  offset="0" style="stop-color:#03D6F9"/>
		<stop  offset="1" style="stop-color:#03D6F9;stop-opacity:0"/>
	</linearGradient>
	<line class="st42" x1="173.03" y1="-2.94" x2="249.36" y2="73.06"/>
	<linearGradient id="SVGID_45_" gradientUnits="userSpaceOnUse" x1="96.49" y1="183.585" x2="96.49" y2="333.3883">
		<stop  offset="0" style="stop-color:#03D6F9"/>
		<stop  offset="1" style="stop-color:#03D6F9;stop-opacity:0"/>
	</linearGradient>
	<polyline class="st43" points="-8.38,298.38 23.91,266.25 88.69,331.39 201.36,217.34 168.7,185.59 104.28,250 	"/>
	<linearGradient id="SVGID_46_" gradientUnits="userSpaceOnUse" x1="-1.8061" y1="321.0526" x2="33.4519" y2="356.3106">
		<stop  offset="0" style="stop-color:#FF0279"/>
		<stop  offset="1" style="stop-color:#FF0279;stop-opacity:0"/>
	</linearGradient>
	<polyline class="st44" points="-8.44,330.52 23.91,298.45 56.19,330.74 39.87,346.62 23.69,330.39 -8.44,362.73 	"/>
	<linearGradient id="SVGID_47_" gradientUnits="userSpaceOnUse" x1="118.36" y1="242.2571" x2="170.6975" y2="242.2571">
		<stop  offset="0" style="stop-color:#FF0279"/>
		<stop  offset="1" style="stop-color:#FF0279;stop-opacity:0"/>
	</linearGradient>
	<line class="st45" x1="120.36" y1="266.72" x2="168.7" y2="217.79"/>
	<linearGradient id="SVGID_48_" gradientUnits="userSpaceOnUse" x1="-10.38" y1="217.8562" x2="25.7" y2="217.8562">
		<stop  offset="0" style="stop-color:#FF0279"/>
		<stop  offset="1" style="stop-color:#FF0279;stop-opacity:0"/>
	</linearGradient>
	<line class="st46" x1="23.7" y1="201.75" x2="-8.38" y2="233.96"/>
	<linearGradient id="SVGID_49_" gradientUnits="userSpaceOnUse" x1="235.6933" y1="26.905" x2="299.5275" y2="26.905">
		<stop  offset="0" style="stop-color:#9101F6"/>
		<stop  offset="1" style="stop-color:#9101F6;stop-opacity:0"/>
	</linearGradient>
	<line class="st47" x1="237.69" y1="-2.94" x2="297.53" y2="56.76"/>
	<linearGradient id="SVGID_50_" gradientUnits="userSpaceOnUse" x1="39.8994" y1="461.4125" x2="39.8994" y2="344.6225">
		<stop  offset="0" style="stop-color:#9101F6"/>
		<stop  offset="1" style="stop-color:#9101F6;stop-opacity:0"/>
	</linearGradient>
	<polyline class="st48" points="-8.38,395 23.87,362.84 39.95,378.92 72.07,346.62 88.18,362.73 -8.38,459.41 	"/>
	<linearGradient id="SVGID_51_" gradientUnits="userSpaceOnUse" x1="-10.38" y1="419.1212" x2="154.7802" y2="419.1212">
		<stop  offset="0" style="stop-color:#FF0279"/>
		<stop  offset="1" style="stop-color:#FF0279;stop-opacity:0"/>
	</linearGradient>
	<polyline class="st49" points="104.28,346.62 152.78,395.12 136.49,411.04 104.28,378.83 -8.38,491.62 	"/>
	<linearGradient id="SVGID_52_" gradientUnits="userSpaceOnUse" x1="70.2001" y1="457.5463" x2="170.5339" y2="457.5463">
		<stop  offset="0" style="stop-color:#03D6F9"/>
		<stop  offset="1" style="stop-color:#03D6F9;stop-opacity:0"/>
	</linearGradient>
	<polyline class="st50" points="72.2,443.37 104.28,411.04 168.53,475.29 140.69,504.05 	"/>
	<linearGradient id="SVGID_53_" gradientUnits="userSpaceOnUse" x1="9.6933" y1="473.65" x2="138.6536" y2="473.65">
		<stop  offset="0" style="stop-color:#9101F6"/>
		<stop  offset="1" style="stop-color:#9101F6;stop-opacity:0"/>
	</linearGradient>
	<polyline class="st51" points="136.65,475.29 104.28,443.24 72.2,476.06 56.19,459.72 11.69,504.05 	"/>
	<linearGradient id="SVGID_54_" gradientUnits="userSpaceOnUse" x1="150.8408" y1="435.5482" x2="235.35" y2="435.5482">
		<stop  offset="0" style="stop-color:#9101F6"/>
		<stop  offset="1" style="stop-color:#9101F6;stop-opacity:0"/>
	</linearGradient>
	<polyline class="st52" points="152.84,427.39 185.51,460.06 233.35,411.04 	"/>
	<rect class="st53" width="500" height="500"/>
</g>
<g id="DESIGNED_BY_FREEPIK">
</g>
</svg>
