<?xml version="1.0" encoding="utf-8"?>
<!-- Generator: Adobe Illustrator 24.1.0, SVG Export Plug-In . SVG Version: 6.00 Build 0)  -->
<svg version="1.1" xmlns="http://www.w3.org/2000/svg" xmlns:xlink="http://www.w3.org/1999/xlink" x="0px" y="0px"
	 viewBox="0 0 500 500" style="enable-background:new 0 0 500 500;" xml:space="preserve">
<style type="text/css">
	.st0{clip-path:url(#SVGID_2_);}
	.st1{fill:none;stroke:url(#SVGID_3_);stroke-width:4;stroke-linecap:round;stroke-linejoin:round;stroke-miterlimit:10;}
	.st2{fill:none;stroke:url(#SVGID_4_);stroke-width:4;stroke-linecap:round;stroke-linejoin:round;stroke-miterlimit:10;}
	.st3{fill:none;stroke:url(#SVGID_5_);stroke-width:4;stroke-linecap:round;stroke-linejoin:round;stroke-miterlimit:10;}
	.st4{fill:none;stroke:url(#SVGID_6_);stroke-width:4;stroke-linecap:round;stroke-linejoin:round;stroke-miterlimit:10;}
	.st5{fill:none;stroke:url(#SVGID_7_);stroke-width:4;stroke-linecap:round;stroke-linejoin:round;stroke-miterlimit:10;}
	.st6{fill:none;stroke:url(#SVGID_8_);stroke-width:4;stroke-linecap:round;stroke-linejoin:round;stroke-miterlimit:10;}
	.st7{fill:none;stroke:url(#SVGID_9_);stroke-width:4;stroke-linecap:round;stroke-linejoin:round;stroke-miterlimit:10;}
	.st8{fill:none;stroke:url(#SVGID_10_);stroke-width:4;stroke-linecap:round;stroke-linejoin:round;stroke-miterlimit:10;}
	.st9{fill:none;stroke:url(#SVGID_11_);stroke-width:4;stroke-linecap:round;stroke-linejoin:round;stroke-miterlimit:10;}
	.st10{fill:none;stroke:url(#SVGID_12_);stroke-width:4;stroke-linecap:round;stroke-linejoin:round;stroke-miterlimit:10;}
	.st11{fill:none;stroke:url(#SVGID_13_);stroke-width:4;stroke-linecap:round;stroke-linejoin:round;stroke-miterlimit:10;}
	.st12{fill:none;stroke:url(#SVGID_14_);stroke-width:4;stroke-linecap:round;stroke-linejoin:round;stroke-miterlimit:10;}
	.st13{fill:none;stroke:url(#SVGID_15_);stroke-width:4;stroke-linecap:round;stroke-linejoin:round;stroke-miterlimit:10;}
	.st14{fill:none;stroke:url(#SVGID_16_);stroke-width:4;stroke-linecap:round;stroke-linejoin:round;stroke-miterlimit:10;}
	.st15{fill:none;stroke:url(#SVGID_17_);stroke-width:4;stroke-linecap:round;stroke-linejoin:round;stroke-miterlimit:10;}
	.st16{fill:none;stroke:url(#SVGID_18_);stroke-width:4;stroke-linecap:round;stroke-linejoin:round;stroke-miterlimit:10;}
	.st17{fill:none;stroke:url(#SVGID_19_);stroke-width:4;stroke-linecap:round;stroke-linejoin:round;stroke-miterlimit:10;}
	.st18{fill:none;stroke:url(#SVGID_20_);stroke-width:4;stroke-linecap:round;stroke-linejoin:round;stroke-miterlimit:10;}
	.st19{fill:none;stroke:url(#SVGID_21_);stroke-width:4;stroke-linecap:round;stroke-linejoin:round;stroke-miterlimit:10;}
	.st20{fill:none;stroke:url(#SVGID_22_);stroke-width:4;stroke-linecap:round;stroke-linejoin:round;stroke-miterlimit:10;}
	.st21{fill:none;stroke:url(#SVGID_23_);stroke-width:4;stroke-linecap:round;stroke-linejoin:round;stroke-miterlimit:10;}
	.st22{fill:none;stroke:url(#SVGID_24_);stroke-width:4;stroke-linecap:round;stroke-linejoin:round;stroke-miterlimit:10;}
	.st23{fill:none;stroke:url(#SVGID_25_);stroke-width:4;stroke-linecap:round;stroke-linejoin:round;stroke-miterlimit:10;}
	.st24{fill:none;stroke:url(#SVGID_26_);stroke-width:4;stroke-linecap:round;stroke-linejoin:round;stroke-miterlimit:10;}
	.st25{fill:none;stroke:url(#SVGID_27_);stroke-width:4;stroke-linecap:round;stroke-linejoin:round;stroke-miterlimit:10;}
	.st26{fill:none;stroke:url(#SVGID_28_);stroke-width:4;stroke-linecap:round;stroke-linejoin:round;stroke-miterlimit:10;}
	.st27{fill:none;stroke:url(#SVGID_29_);stroke-width:4;stroke-linecap:round;stroke-linejoin:round;stroke-miterlimit:10;}
	.st28{fill:none;stroke:url(#SVGID_30_);stroke-width:4;stroke-linecap:round;stroke-linejoin:round;stroke-miterlimit:10;}
	.st29{fill:none;stroke:url(#SVGID_31_);stroke-width:4;stroke-linecap:round;stroke-linejoin:round;stroke-miterlimit:10;}
	.st30{fill:none;stroke:url(#SVGID_32_);stroke-width:4;stroke-linecap:round;stroke-linejoin:round;stroke-miterlimit:10;}
	.st31{fill:none;stroke:url(#SVGID_33_);stroke-width:4;stroke-linecap:round;stroke-linejoin:round;stroke-miterlimit:10;}
	.st32{fill:none;stroke:url(#SVGID_34_);stroke-width:4;stroke-linecap:round;stroke-linejoin:round;stroke-miterlimit:10;}
	.st33{fill:none;stroke:url(#SVGID_35_);stroke-width:4;stroke-linecap:round;stroke-linejoin:round;stroke-miterlimit:10;}
	.st34{fill:none;stroke:url(#SVGID_36_);stroke-width:4;stroke-linecap:round;stroke-linejoin:round;stroke-miterlimit:10;}
	.st35{fill:none;stroke:url(#SVGID_37_);stroke-width:4;stroke-linecap:round;stroke-linejoin:round;stroke-miterlimit:10;}
	.st36{fill:none;stroke:url(#SVGID_38_);stroke-width:4;stroke-linecap:round;stroke-linejoin:round;stroke-miterlimit:10;}
	.st37{fill:none;stroke:url(#SVGID_39_);stroke-width:4;stroke-linecap:round;stroke-linejoin:round;stroke-miterlimit:10;}
	.st38{fill:none;stroke:url(#SVGID_40_);stroke-width:4;stroke-linecap:round;stroke-linejoin:round;stroke-miterlimit:10;}
	.st39{fill:none;stroke:url(#SVGID_41_);stroke-width:4;stroke-linecap:round;stroke-linejoin:round;stroke-miterlimit:10;}
	.st40{fill:none;stroke:url(#SVGID_42_);stroke-width:4;stroke-linecap:round;stroke-linejoin:round;stroke-miterlimit:10;}
	.st41{fill:none;stroke:url(#SVGID_43_);stroke-width:4;stroke-linecap:round;stroke-linejoin:round;stroke-miterlimit:10;}
	.st42{fill:none;stroke:url(#SVGID_44_);stroke-width:4;stroke-linecap:round;stroke-linejoin:round;stroke-miterlimit:10;}
	.st43{fill:none;stroke:url(#SVGID_45_);stroke-width:4;stroke-linecap:round;stroke-linejoin:round;stroke-miterlimit:10;}
	.st44{fill:none;stroke:url(#SVGID_46_);stroke-width:4;stroke-linecap:round;stroke-linejoin:round;stroke-miterlimit:10;}
	.st45{fill:none;stroke:url(#SVGID_47_);stroke-width:4;stroke-linecap:round;stroke-linejoin:round;stroke-miterlimit:10;}
	.st46{fill:none;stroke:url(#SVGID_48_);stroke-width:4;stroke-linecap:round;stroke-linejoin:round;stroke-miterlimit:10;}
	.st47{fill:none;stroke:url(#SVGID_49_);stroke-width:4;stroke-linecap:round;stroke-linejoin:round;stroke-miterlimit:10;}
	.st48{fill:none;stroke:url(#SVGID_50_);stroke-width:4;stroke-linecap:round;stroke-linejoin:round;stroke-miterlimit:10;}
	.st49{fill:none;stroke:url(#SVGID_51_);stroke-width:4;stroke-linecap:round;stroke-linejoin:round;stroke-miterlimit:10;}
	.st50{fill:none;stroke:url(#SVGID_52_);stroke-width:4;stroke-linecap:round;stroke-linejoin:round;stroke-miterlimit:10;}
	.st51{fill:none;stroke:url(#SVGID_53_);stroke-width:4;stroke-linecap:round;stroke-linejoin:round;stroke-miterlimit:10;}
	.st52{fill:none;stroke:url(#SVGID_54_);stroke-width:4;stroke-linecap:round;stroke-linejoin:round;stroke-miterlimit:10;}
	.st53{opacity:0.8;fill:#FFFFFF;}
</style>
<g id="BACKGROUND_2">
	<g>
		<defs>
			<rect id="SVGID_1_" x="675.84" y="8.37" width="750" height="500"/>
		</defs>
		<clipPath id="SVGID_2_">
			<use xlink:href="#SVGID_1_"  style="overflow:visible;"/>
		</clipPath>
		<g class="st0">
			<linearGradient id="SVGID_3_" gradientUnits="userSpaceOnUse" x1="788.1713" y1="308.6771" x2="788.1713" y2="3.4271">
				<stop  offset="0" style="stop-color:#9101F6"/>
				<stop  offset="1" style="stop-color:#9101F6;stop-opacity:0"/>
			</linearGradient>
			<polyline class="st1" points="667.39,274.48 763.86,178.09 780.12,193.96 715.7,258.37 764.2,306.68 780.45,290.68 
				747.91,258.37 908.95,97.33 816.86,5.43 			"/>
			<linearGradient id="SVGID_4_" gradientUnits="userSpaceOnUse" x1="665.3932" y1="59.4271" x2="782.5302" y2="59.4271">
				<stop  offset="0" style="stop-color:#9101F6"/>
				<stop  offset="1" style="stop-color:#9101F6;stop-opacity:0"/>
			</linearGradient>
			<polyline class="st2" points="667.39,49.02 731.86,113.43 780.53,65.43 764.02,49.02 731.8,81.23 699.6,49.02 743.86,5.43 			"/>
			<linearGradient id="SVGID_5_" gradientUnits="userSpaceOnUse" x1="816.3844" y1="147.7604" x2="816.3844" y2="3.4271">
				<stop  offset="0" style="stop-color:#FF0279"/>
				<stop  offset="1" style="stop-color:#FF0279;stop-opacity:0"/>
			</linearGradient>
			<polyline class="st3" points="755.57,8.37 844.53,97.33 812.33,129.54 828.53,145.76 877.2,97.76 785.2,5.43 			"/>
			<linearGradient id="SVGID_6_" gradientUnits="userSpaceOnUse" x1="1207.3387" y1="131.6313" x2="1207.3387" y2="-12.7021">
				<stop  offset="0" style="stop-color:#FF0279"/>
				<stop  offset="1" style="stop-color:#FF0279;stop-opacity:0"/>
			</linearGradient>
			<polyline class="st4" points="1146.53,-7.76 1235.49,81.21 1203.28,113.41 1219.48,129.63 1268.15,81.63 1176.15,-10.7 			"/>
			<linearGradient id="SVGID_7_" gradientUnits="userSpaceOnUse" x1="972.013" y1="-13.7317" x2="912.2151" y2="89.8412">
				<stop  offset="0" style="stop-color:#FF0279"/>
				<stop  offset="1" style="stop-color:#FF0279;stop-opacity:0"/>
			</linearGradient>
			<polyline class="st5" points="881.86,5.43 957.2,81.09 941.53,97.43 957.2,113.5 1005.57,65.13 973.36,32.92 1001.2,5.43 			"/>
			<linearGradient id="SVGID_8_" gradientUnits="userSpaceOnUse" x1="665.4569" y1="161.8133" x2="734.0302" y2="161.8133">
				<stop  offset="0" style="stop-color:#FF0279"/>
				<stop  offset="1" style="stop-color:#FF0279;stop-opacity:0"/>
			</linearGradient>
			<polyline class="st6" points="667.46,113.5 732.03,178.09 715.7,193.96 699.74,177.71 667.46,210.12 			"/>
			<linearGradient id="SVGID_9_" gradientUnits="userSpaceOnUse" x1="739.892" y1="180.0938" x2="739.892" y2="79.2308">
				<stop  offset="0" style="stop-color:#03D6F9"/>
				<stop  offset="1" style="stop-color:#03D6F9;stop-opacity:0"/>
			</linearGradient>
			<polyline class="st7" points="667.39,81.23 732.03,145.76 796.22,81.23 812.33,97.33 764.13,145.76 796.36,178.09 812.39,161.81 
				796.34,145.76 			"/>
			<linearGradient id="SVGID_10_" gradientUnits="userSpaceOnUse" x1="938.0692" y1="500.568" x2="1006.6425" y2="500.568">
				<stop  offset="0" style="stop-color:#FF0279"/>
				<stop  offset="1" style="stop-color:#FF0279;stop-opacity:0"/>
			</linearGradient>
			<polyline class="st8" points="940.07,452.26 1004.64,516.85 988.32,532.71 972.36,516.47 940.07,548.88 			"/>
			<linearGradient id="SVGID_11_" gradientUnits="userSpaceOnUse" x1="1012.5042" y1="518.8484" x2="1012.5042" y2="417.9855">
				<stop  offset="0" style="stop-color:#03D6F9"/>
				<stop  offset="1" style="stop-color:#03D6F9;stop-opacity:0"/>
			</linearGradient>
			<polyline class="st9" points="940.01,419.99 1004.64,484.52 1068.84,419.99 1084.94,436.09 1036.74,484.52 1068.98,516.85 
				1085,500.57 1068.95,484.52 			"/>
			<linearGradient id="SVGID_12_" gradientUnits="userSpaceOnUse" x1="846.8636" y1="43.4271" x2="927.1969" y2="43.4271">
				<stop  offset="0" style="stop-color:#03D6F9"/>
				<stop  offset="1" style="stop-color:#03D6F9;stop-opacity:0"/>
			</linearGradient>
			<line class="st10" x1="848.86" y1="5.43" x2="925.2" y2="81.43"/>
			<linearGradient id="SVGID_13_" gradientUnits="userSpaceOnUse" x1="1124.4254" y1="43.4271" x2="1204.7588" y2="43.4271">
				<stop  offset="0" style="stop-color:#03D6F9"/>
				<stop  offset="1" style="stop-color:#03D6F9;stop-opacity:0"/>
			</linearGradient>
			<line class="st11" x1="1126.43" y1="5.43" x2="1202.76" y2="81.43"/>
			<linearGradient id="SVGID_14_" gradientUnits="userSpaceOnUse" x1="772.3269" y1="191.9571" x2="772.3269" y2="341.7604">
				<stop  offset="0" style="stop-color:#03D6F9"/>
				<stop  offset="1" style="stop-color:#03D6F9;stop-opacity:0"/>
			</linearGradient>
			<polyline class="st12" points="667.46,306.75 699.74,274.62 764.53,339.76 877.2,225.71 844.53,193.96 780.12,258.37 			"/>
			<linearGradient id="SVGID_15_" gradientUnits="userSpaceOnUse" x1="674.0308" y1="329.4247" x2="709.2888" y2="364.6827">
				<stop  offset="0" style="stop-color:#FF0279"/>
				<stop  offset="1" style="stop-color:#FF0279;stop-opacity:0"/>
			</linearGradient>
			<polyline class="st13" points="667.39,338.89 699.74,306.83 732.03,339.11 715.7,354.99 699.53,338.76 667.39,371.1 			"/>
			<linearGradient id="SVGID_16_" gradientUnits="userSpaceOnUse" x1="1170.9817" y1="480.0256" x2="1206.2397" y2="515.2836">
				<stop  offset="0" style="stop-color:#FF0279"/>
				<stop  offset="1" style="stop-color:#FF0279;stop-opacity:0"/>
			</linearGradient>
			<polyline class="st14" points="1164.34,489.49 1196.69,457.43 1228.98,489.71 1212.66,505.6 1196.48,489.36 1164.34,521.7 			"/>
			<linearGradient id="SVGID_17_" gradientUnits="userSpaceOnUse" x1="883.2686" y1="483.2256" x2="918.5266" y2="518.4836">
				<stop  offset="0" style="stop-color:#FF0279"/>
				<stop  offset="1" style="stop-color:#FF0279;stop-opacity:0"/>
			</linearGradient>
			<polyline class="st15" points="876.63,492.69 908.98,460.63 941.27,492.91 924.94,508.8 908.77,492.56 876.63,524.9 			"/>
			<linearGradient id="SVGID_18_" gradientUnits="userSpaceOnUse" x1="794.1969" y1="250.6292" x2="846.5344" y2="250.6292">
				<stop  offset="0" style="stop-color:#FF0279"/>
				<stop  offset="1" style="stop-color:#FF0279;stop-opacity:0"/>
			</linearGradient>
			<line class="st16" x1="796.2" y1="275.09" x2="844.53" y2="226.16"/>
			<linearGradient id="SVGID_19_" gradientUnits="userSpaceOnUse" x1="665.4569" y1="226.2283" x2="701.5369" y2="226.2283">
				<stop  offset="0" style="stop-color:#FF0279"/>
				<stop  offset="1" style="stop-color:#FF0279;stop-opacity:0"/>
			</linearGradient>
			<line class="st17" x1="699.54" y1="210.12" x2="667.46" y2="242.33"/>
			<linearGradient id="SVGID_20_" gradientUnits="userSpaceOnUse" x1="911.5302" y1="35.2771" x2="975.3644" y2="35.2771">
				<stop  offset="0" style="stop-color:#9101F6"/>
				<stop  offset="1" style="stop-color:#9101F6;stop-opacity:0"/>
			</linearGradient>
			<line class="st18" x1="913.53" y1="5.43" x2="973.36" y2="65.13"/>
			<linearGradient id="SVGID_21_" gradientUnits="userSpaceOnUse" x1="715.7363" y1="469.7846" x2="715.7363" y2="352.9946">
				<stop  offset="0" style="stop-color:#9101F6"/>
				<stop  offset="1" style="stop-color:#9101F6;stop-opacity:0"/>
			</linearGradient>
			<polyline class="st19" points="667.46,403.37 699.71,371.21 715.79,387.29 747.91,354.99 764.02,371.1 667.46,467.78 			"/>
			<linearGradient id="SVGID_22_" gradientUnits="userSpaceOnUse" x1="665.4569" y1="427.4933" x2="830.6171" y2="427.4933">
				<stop  offset="0" style="stop-color:#FF0279"/>
				<stop  offset="1" style="stop-color:#FF0279;stop-opacity:0"/>
			</linearGradient>
			<polyline class="st20" points="780.12,354.99 828.62,403.49 812.33,419.41 780.12,387.2 667.46,499.99 			"/>
			<linearGradient id="SVGID_23_" gradientUnits="userSpaceOnUse" x1="746.037" y1="465.9183" x2="846.3708" y2="465.9183">
				<stop  offset="0" style="stop-color:#03D6F9"/>
				<stop  offset="1" style="stop-color:#03D6F9;stop-opacity:0"/>
			</linearGradient>
			<polyline class="st21" points="748.04,451.74 780.12,419.41 844.37,483.66 816.53,512.43 			"/>
			<linearGradient id="SVGID_24_" gradientUnits="userSpaceOnUse" x1="685.5302" y1="482.0221" x2="814.4905" y2="482.0221">
				<stop  offset="0" style="stop-color:#9101F6"/>
				<stop  offset="1" style="stop-color:#9101F6;stop-opacity:0"/>
			</linearGradient>
			<polyline class="st22" points="812.49,483.66 780.12,451.62 748.04,484.43 732.03,468.09 687.53,512.43 			"/>
			
				<linearGradient id="SVGID_25_" gradientUnits="userSpaceOnUse" x1="1261.2421" y1="308.6771" x2="1261.2421" y2="3.4271" gradientTransform="matrix(-1 0 0 -1 2573.6826 517.8541)">
				<stop  offset="0" style="stop-color:#9101F6"/>
				<stop  offset="1" style="stop-color:#9101F6;stop-opacity:0"/>
			</linearGradient>
			<polyline class="st23" points="1433.22,243.38 1336.75,339.76 1320.49,323.9 1384.91,259.48 1336.42,211.18 1320.17,227.18 
				1352.7,259.48 1191.66,420.52 1283.75,512.43 			"/>
			
				<linearGradient id="SVGID_26_" gradientUnits="userSpaceOnUse" x1="1138.4639" y1="59.4271" x2="1255.6011" y2="59.4271" gradientTransform="matrix(-1 0 0 -1 2573.6826 517.8541)">
				<stop  offset="0" style="stop-color:#9101F6"/>
				<stop  offset="1" style="stop-color:#9101F6;stop-opacity:0"/>
			</linearGradient>
			<polyline class="st24" points="1433.22,468.83 1368.75,404.43 1320.08,452.43 1336.6,468.83 1368.81,436.63 1401.01,468.83 
				1356.75,512.43 			"/>
			
				<linearGradient id="SVGID_27_" gradientUnits="userSpaceOnUse" x1="1289.4551" y1="147.7604" x2="1289.4551" y2="3.4271" gradientTransform="matrix(-1 0 0 -1 2573.6826 517.8541)">
				<stop  offset="0" style="stop-color:#FF0279"/>
				<stop  offset="1" style="stop-color:#FF0279;stop-opacity:0"/>
			</linearGradient>
			<polyline class="st25" points="1345.04,509.48 1256.08,420.52 1288.29,388.31 1272.08,372.09 1223.42,420.09 1315.42,512.43 			
				"/>
			
				<linearGradient id="SVGID_28_" gradientUnits="userSpaceOnUse" x1="1138.5276" y1="161.8133" x2="1207.1011" y2="161.8133" gradientTransform="matrix(-1 0 0 -1 2573.6826 517.8541)">
				<stop  offset="0" style="stop-color:#FF0279"/>
				<stop  offset="1" style="stop-color:#FF0279;stop-opacity:0"/>
			</linearGradient>
			<polyline class="st26" points="1433.16,404.35 1368.58,339.76 1384.91,323.9 1400.87,340.14 1433.16,307.73 			"/>
			
				<linearGradient id="SVGID_29_" gradientUnits="userSpaceOnUse" x1="1212.9626" y1="180.0938" x2="1212.9626" y2="79.2308" gradientTransform="matrix(-1 0 0 -1 2573.6826 517.8541)">
				<stop  offset="0" style="stop-color:#03D6F9"/>
				<stop  offset="1" style="stop-color:#03D6F9;stop-opacity:0"/>
			</linearGradient>
			<polyline class="st27" points="1433.22,436.62 1368.58,372.09 1304.39,436.62 1288.29,420.52 1336.48,372.09 1304.25,339.76 
				1288.22,356.04 1304.27,372.09 			"/>
			
				<linearGradient id="SVGID_30_" gradientUnits="userSpaceOnUse" x1="1245.3976" y1="191.9571" x2="1245.3976" y2="341.7604" gradientTransform="matrix(-1 0 0 -1 2573.6826 517.8541)">
				<stop  offset="0" style="stop-color:#03D6F9"/>
				<stop  offset="1" style="stop-color:#03D6F9;stop-opacity:0"/>
			</linearGradient>
			<polyline class="st28" points="1433.16,211.11 1400.87,243.24 1336.08,178.09 1223.42,292.14 1256.08,323.9 1320.49,259.48 			
				"/>
			
				<linearGradient id="SVGID_31_" gradientUnits="userSpaceOnUse" x1="1147.1016" y1="329.4247" x2="1182.3596" y2="364.6827" gradientTransform="matrix(-1 0 0 -1 2573.6826 517.8541)">
				<stop  offset="0" style="stop-color:#FF0279"/>
				<stop  offset="1" style="stop-color:#FF0279;stop-opacity:0"/>
			</linearGradient>
			<polyline class="st29" points="1433.22,178.96 1400.87,211.03 1368.58,178.74 1384.91,162.86 1401.08,179.09 1433.22,146.76 			
				"/>
			
				<linearGradient id="SVGID_32_" gradientUnits="userSpaceOnUse" x1="1138.5276" y1="226.2283" x2="1174.6077" y2="226.2283" gradientTransform="matrix(-1 0 0 -1 2573.6826 517.8541)">
				<stop  offset="0" style="stop-color:#FF0279"/>
				<stop  offset="1" style="stop-color:#FF0279;stop-opacity:0"/>
			</linearGradient>
			<line class="st30" x1="1401.08" y1="307.73" x2="1433.16" y2="275.52"/>
			
				<linearGradient id="SVGID_33_" gradientUnits="userSpaceOnUse" x1="1188.807" y1="469.7846" x2="1188.807" y2="352.9946" gradientTransform="matrix(-1 0 0 -1 2573.6826 517.8541)">
				<stop  offset="0" style="stop-color:#9101F6"/>
				<stop  offset="1" style="stop-color:#9101F6;stop-opacity:0"/>
			</linearGradient>
			<polyline class="st31" points="1433.16,114.48 1400.9,146.64 1384.82,130.56 1352.7,162.86 1336.6,146.76 1433.16,50.07 			"/>
			
				<linearGradient id="SVGID_34_" gradientUnits="userSpaceOnUse" x1="1138.5276" y1="427.4933" x2="1303.6879" y2="427.4933" gradientTransform="matrix(-1 0 0 -1 2573.6826 517.8541)">
				<stop  offset="0" style="stop-color:#FF0279"/>
				<stop  offset="1" style="stop-color:#FF0279;stop-opacity:0"/>
			</linearGradient>
			<polyline class="st32" points="1320.49,162.86 1271.99,114.36 1288.29,98.44 1320.49,130.65 1433.16,17.86 			"/>
			
				<linearGradient id="SVGID_35_" gradientUnits="userSpaceOnUse" x1="1219.1077" y1="465.9183" x2="1319.4415" y2="465.9183" gradientTransform="matrix(-1 0 0 -1 2573.6826 517.8541)">
				<stop  offset="0" style="stop-color:#03D6F9"/>
				<stop  offset="1" style="stop-color:#03D6F9;stop-opacity:0"/>
			</linearGradient>
			<polyline class="st33" points="1352.57,66.11 1320.49,98.44 1256.24,34.19 1284.08,5.43 			"/>
			
				<linearGradient id="SVGID_36_" gradientUnits="userSpaceOnUse" x1="1158.6011" y1="482.0221" x2="1287.5612" y2="482.0221" gradientTransform="matrix(-1 0 0 -1 2573.6826 517.8541)">
				<stop  offset="0" style="stop-color:#9101F6"/>
				<stop  offset="1" style="stop-color:#9101F6;stop-opacity:0"/>
			</linearGradient>
			<polyline class="st34" points="1288.12,34.19 1320.49,66.24 1352.57,33.42 1368.58,49.76 1413.08,5.43 			"/>
			<linearGradient id="SVGID_37_" gradientUnits="userSpaceOnUse" x1="826.6777" y1="443.9202" x2="911.1869" y2="443.9202">
				<stop  offset="0" style="stop-color:#9101F6"/>
				<stop  offset="1" style="stop-color:#9101F6;stop-opacity:0"/>
			</linearGradient>
			<polyline class="st35" points="828.68,435.76 861.35,468.43 909.19,419.41 			"/>
		</g>
	</g>
</g>
<g id="BACKGROUND_1">
	<linearGradient id="SVGID_38_" gradientUnits="userSpaceOnUse" x1="121.8897" y1="296.8041" x2="121.8897" y2="3">
		<stop  offset="0" style="stop-color:#9101F6"/>
		<stop  offset="1" style="stop-color:#9101F6;stop-opacity:0"/>
	</linearGradient>
	<polyline class="st36" points="5.7,263.83 98.51,171.11 114.14,186.37 52.18,248.33 98.83,294.8 114.46,279.41 83.16,248.33 
		238.08,93.42 149.49,5 	"/>
	<linearGradient id="SVGID_39_" gradientUnits="userSpaceOnUse" x1="3.7005" y1="56.9483" x2="116.5389" y2="56.9483">
		<stop  offset="0" style="stop-color:#9101F6"/>
		<stop  offset="1" style="stop-color:#9101F6;stop-opacity:0"/>
	</linearGradient>
	<polyline class="st37" points="5.7,46.94 67.72,108.9 114.54,62.72 98.65,46.94 67.66,77.92 36.68,46.94 79.27,5 	"/>
	<linearGradient id="SVGID_40_" gradientUnits="userSpaceOnUse" x1="149.0309" y1="142.0014" x2="149.0309" y2="3">
		<stop  offset="0" style="stop-color:#FF0279"/>
		<stop  offset="1" style="stop-color:#FF0279;stop-opacity:0"/>
	</linearGradient>
	<polyline class="st38" points="90.53,7.83 176.11,93.42 145.13,124.4 160.72,140 207.53,93.83 119.03,5 	"/>
	<linearGradient id="SVGID_41_" gradientUnits="userSpaceOnUse" x1="298.7844" y1="-13.4966" x2="241.1825" y2="86.2727">
		<stop  offset="0" style="stop-color:#FF0279"/>
		<stop  offset="1" style="stop-color:#FF0279;stop-opacity:0"/>
	</linearGradient>
	<polyline class="st39" points="212.02,5 284.49,77.79 269.42,93.5 284.49,108.97 331.03,62.43 300.05,31.45 326.82,5 	"/>
	<linearGradient id="SVGID_42_" gradientUnits="userSpaceOnUse" x1="3.7618" y1="155.4444" x2="69.8817" y2="155.4444">
		<stop  offset="0" style="stop-color:#FF0279"/>
		<stop  offset="1" style="stop-color:#FF0279;stop-opacity:0"/>
	</linearGradient>
	<polyline class="st40" points="5.76,108.97 67.88,171.11 52.18,186.37 36.82,170.74 5.76,201.92 	"/>
	<linearGradient id="SVGID_43_" gradientUnits="userSpaceOnUse" x1="75.4447" y1="173.1063" x2="75.4447" y2="75.9236">
		<stop  offset="0" style="stop-color:#03D6F9"/>
		<stop  offset="1" style="stop-color:#03D6F9;stop-opacity:0"/>
	</linearGradient>
	<polyline class="st41" points="5.7,77.92 67.88,140 129.64,77.92 145.13,93.42 98.76,140 129.77,171.11 145.19,155.44 129.75,140 	
		"/>
	<linearGradient id="SVGID_44_" gradientUnits="userSpaceOnUse" x1="178.276" y1="41.5562" x2="255.7091" y2="41.5562">
		<stop  offset="0" style="stop-color:#03D6F9"/>
		<stop  offset="1" style="stop-color:#03D6F9;stop-opacity:0"/>
	</linearGradient>
	<line class="st42" x1="180.28" y1="5" x2="253.71" y2="78.11"/>
	<linearGradient id="SVGID_45_" gradientUnits="userSpaceOnUse" x1="106.6473" y1="184.3669" x2="106.6473" y2="328.6304">
		<stop  offset="0" style="stop-color:#03D6F9"/>
		<stop  offset="1" style="stop-color:#03D6F9;stop-opacity:0"/>
	</linearGradient>
	<polyline class="st43" points="5.76,294.87 36.82,263.96 99.15,326.63 207.53,216.91 176.11,186.37 114.14,248.33 	"/>
	<linearGradient id="SVGID_46_" gradientUnits="userSpaceOnUse" x1="12.0322" y1="316.6337" x2="46.0581" y2="350.6595">
		<stop  offset="0" style="stop-color:#FF0279"/>
		<stop  offset="1" style="stop-color:#FF0279;stop-opacity:0"/>
	</linearGradient>
	<polyline class="st44" points="5.7,325.79 36.82,294.95 67.88,326.01 52.18,341.29 36.62,325.67 5.7,356.78 	"/>
	<linearGradient id="SVGID_47_" gradientUnits="userSpaceOnUse" x1="127.6104" y1="240.8857" x2="178.1113" y2="240.8857">
		<stop  offset="0" style="stop-color:#FF0279"/>
		<stop  offset="1" style="stop-color:#FF0279;stop-opacity:0"/>
	</linearGradient>
	<line class="st45" x1="129.61" y1="264.42" x2="176.11" y2="217.35"/>
	<linearGradient id="SVGID_48_" gradientUnits="userSpaceOnUse" x1="3.7618" y1="217.412" x2="38.6229" y2="217.412">
		<stop  offset="0" style="stop-color:#FF0279"/>
		<stop  offset="1" style="stop-color:#FF0279;stop-opacity:0"/>
	</linearGradient>
	<line class="st46" x1="36.62" y1="201.92" x2="5.76" y2="232.9"/>
	<linearGradient id="SVGID_49_" gradientUnits="userSpaceOnUse" x1="240.4856" y1="33.7159" x2="302.0464" y2="33.7159">
		<stop  offset="0" style="stop-color:#9101F6"/>
		<stop  offset="1" style="stop-color:#9101F6;stop-opacity:0"/>
	</linearGradient>
	<line class="st47" x1="242.49" y1="5" x2="300.05" y2="62.43"/>
	<linearGradient id="SVGID_50_" gradientUnits="userSpaceOnUse" x1="52.2069" y1="451.7904" x2="52.2069" y2="339.2858">
		<stop  offset="0" style="stop-color:#9101F6"/>
		<stop  offset="1" style="stop-color:#9101F6;stop-opacity:0"/>
	</linearGradient>
	<polyline class="st48" points="5.76,387.82 36.79,356.88 52.26,372.35 83.16,341.29 98.65,356.78 5.76,449.79 	"/>
	<linearGradient id="SVGID_51_" gradientUnits="userSpaceOnUse" x1="3.7618" y1="411.03" x2="162.7988" y2="411.03">
		<stop  offset="0" style="stop-color:#FF0279"/>
		<stop  offset="1" style="stop-color:#FF0279;stop-opacity:0"/>
	</linearGradient>
	<polyline class="st49" points="114.14,341.29 160.8,387.94 145.13,403.25 114.14,372.27 5.76,480.77 	"/>
	<linearGradient id="SVGID_52_" gradientUnits="userSpaceOnUse" x1="81.2803" y1="447.995" x2="177.9539" y2="447.995">
		<stop  offset="0" style="stop-color:#03D6F9"/>
		<stop  offset="1" style="stop-color:#03D6F9;stop-opacity:0"/>
	</linearGradient>
	<polyline class="st50" points="83.28,434.36 114.14,403.25 175.95,465.06 149.17,492.74 	"/>
	<linearGradient id="SVGID_53_" gradientUnits="userSpaceOnUse" x1="23.0724" y1="463.4869" x2="147.2849" y2="463.4869">
		<stop  offset="0" style="stop-color:#9101F6"/>
		<stop  offset="1" style="stop-color:#9101F6;stop-opacity:0"/>
	</linearGradient>
	<polyline class="st51" points="145.28,465.06 114.14,434.24 83.28,465.81 67.88,450.09 25.07,492.74 	"/>
	<linearGradient id="SVGID_54_" gradientUnits="userSpaceOnUse" x1="158.8571" y1="426.8327" x2="240.3074" y2="426.8327">
		<stop  offset="0" style="stop-color:#9101F6"/>
		<stop  offset="1" style="stop-color:#9101F6;stop-opacity:0"/>
	</linearGradient>
	<polyline class="st52" points="160.86,418.98 192.29,450.41 238.31,403.25 	"/>
	<rect x="0" class="st53" width="500" height="500"/>
</g>
<g id="DESIGNED_BY_FREEPIK">
</g>
</svg>
